<?xml version="1.0" encoding="utf-8"?>
<!-- Generator: Adobe Illustrator 15.0.2, SVG Export Plug-In . SVG Version: 6.00 Build 0)  -->
<!DOCTYPE svg PUBLIC "-//W3C//DTD SVG 1.1//EN" "http://www.w3.org/Graphics/SVG/1.1/DTD/svg11.dtd">
<svg version="1.1" id="Calque_1" xmlns="http://www.w3.org/2000/svg" xmlns:xlink="http://www.w3.org/1999/xlink" x="0px" y="0px"
	 width="512px" height="512px" viewBox="0 0 512 512" enable-background="new 0 0 512 512" xml:space="preserve">
<g>
	<path fill="none" d="M256,90c-91.756,0-166,74.259-166,166c0,91.757,74.26,166,166,166c91.757,0,166-74.258,166-166
		C422,164.243,347.74,90,256,90z M316.332,181.5c17.121,0,31,13.879,31,31s-13.879,31-31,31c-17.12,0-30.999-13.879-30.999-31
		S299.212,181.5,316.332,181.5z M199.666,181.5c17.121,0,31,13.879,31,31s-13.879,31-31,31c-17.12,0-31-13.879-31-31
		S182.546,181.5,199.666,181.5z M351.334,343.805C316.332,322.5,294.083,313.334,258,313.334s-58.333,9.166-93.334,30.472
		l-8.791-8.791C174.167,308.5,212.417,276.334,258,276.334c45.582,0,83.832,32.166,102.125,58.681L351.334,343.805z"/>
	<circle fill="#E3001B" cx="199.666" cy="212.5" r="31"/>
	<circle fill="#E3001B" cx="316.332" cy="212.5" r="31"/>
	<path fill="#333333" d="M256,50C142.229,50,50,142.229,50,256c0,113.771,92.229,206,206,206c113.771,0,206-92.229,206-206
		C462,142.229,369.771,50,256,50z M256,422c-91.74,0-166-74.243-166-166c0-91.741,74.244-166,166-166c91.74,0,166,74.243,166,166
		C422,347.742,347.757,422,256,422z"/>
	<path fill="#E3001B" d="M258,276.334c-45.583,0-83.833,32.166-102.125,58.681l8.791,8.791
		c35.001-21.306,57.251-30.472,93.334-30.472s58.332,9.166,93.334,30.472l8.791-8.791C341.832,308.5,303.582,276.334,258,276.334z"
		/>
</g>
</svg>
