<?xml version="1.0" encoding="utf-8"?>
<!-- Generator: Adobe Illustrator 15.0.2, SVG Export Plug-In . SVG Version: 6.00 Build 0)  -->
<!DOCTYPE svg PUBLIC "-//W3C//DTD SVG 1.1//EN" "http://www.w3.org/Graphics/SVG/1.1/DTD/svg11.dtd">
<svg version="1.1" id="Calque_1" xmlns="http://www.w3.org/2000/svg" xmlns:xlink="http://www.w3.org/1999/xlink" x="0px" y="0px"
	 width="512px" height="512px" viewBox="0 0 512 512" enable-background="new 0 0 512 512" xml:space="preserve">
<g>
	<rect x="98.125" y="256" fill="none" width="132.875" height="176"/>
	<path fill="none" d="M340.342,80c-16.385,0-29.071,15.335-42.458,35.669h37.032C362.582,115.669,361.582,80,340.342,80z"/>
	<path fill="none" d="M180.584,115.669h37.032C204.229,95.335,191.542,80,175.158,80C153.917,80,152.917,115.669,180.584,115.669z"
		/>
	<rect x="80" y="190.669" fill="none" width="151" height="35.331"/>
	<rect x="281" y="256" fill="none" width="132.875" height="176"/>
	<rect x="281" y="190.669" fill="none" width="151" height="35.331"/>
	<path fill="#E3001B" d="M349.342,50c-53.426,0-78.919,63.044-91.592,90.669c0,0,53.166,0,91.166,0
		C412.25,140.669,412.915,50,349.342,50z M297.884,115.669C311.271,95.335,323.957,80,340.342,80c21.24,0,22.24,35.669-5.426,35.669
		H297.884z"/>
	<path fill="#333333" d="M50,160.669V256h18.125v206h375.75V256H462v-95.331H50z M231,432H98.125V256H231V432z M231,226H80v-35.331
		h151V226z M413.875,432H281V256h132.875V432z M432,226H281v-35.331h151V226z"/>
	<path fill="#E3001B" d="M166.584,140.669c37.999,0,91.166,0,91.166,0C245.077,113.044,219.584,50,166.158,50
		C102.584,50,103.25,140.669,166.584,140.669z M175.158,80c16.384,0,29.07,15.335,42.458,35.669h-37.032
		C152.917,115.669,153.917,80,175.158,80z"/>
</g>
</svg>
