<?xml version="1.0" encoding="utf-8"?>
<!-- Generator: Adobe Illustrator 15.0.2, SVG Export Plug-In . SVG Version: 6.00 Build 0)  -->
<!DOCTYPE svg PUBLIC "-//W3C//DTD SVG 1.1//EN" "http://www.w3.org/Graphics/SVG/1.1/DTD/svg11.dtd">
<svg version="1.1" id="Calque_1" xmlns="http://www.w3.org/2000/svg" xmlns:xlink="http://www.w3.org/1999/xlink" x="0px" y="0px"
	 width="512px" height="512px" viewBox="0 0 512 512" enable-background="new 0 0 512 512" xml:space="preserve">
<g>
	<path fill="#E3001B" d="M347.329,212.495c0-17.113-13.879-30.992-31.005-30.992c-17.112,0-30.991,13.879-30.991,30.992
		c0,17.126,13.879,31.005,30.991,31.005C333.45,243.5,347.329,229.621,347.329,212.495z"/>
	<path fill="#333333" d="M256,50C142.233,50,50,142.233,50,256c0,113.768,92.232,206,206,206c6.08,0,12.096-0.284,18.047-0.806
		c-15.526-11.515-23.231-21.936-38.946-40.519C153.241,410.42,90.001,340.672,90.001,256c0-91.745,74.254-165.985,165.999-165.985
		c91.732,0,165.985,74.228,165.985,165.985c0,34.032-10.214,65.647-27.738,91.966c5.234,6.105,16.359,18.475,22.106,37.322
		C444.887,349.935,462,304.962,462,256C462,142.233,369.767,50,256,50z"/>
	<path fill="#E3001B" d="M230.659,212.495c0-17.113-13.867-30.992-30.993-30.992s-30.992,13.879-30.992,30.992
		c0,17.126,13.866,31.005,30.992,31.005S230.659,229.621,230.659,212.495z"/>
	<path fill="#E3001B" d="M326.25,324.528c-80.296,0-116.282-0.146-158.896-33.813c0,0-0.012-0.012-0.024-0.012l-8.788,8.788
		c10.681,16.296,26.109,33.215,45.702,45.507c31.627,19.849,45.58,39.171,73.435,71.85c57.592,67.551,140.218,13.048,93.162-42.395
		C350.332,350.284,326.25,324.528,326.25,324.528z"/>
</g>
</svg>
