<?xml version="1.0" encoding="utf-8"?>
<!-- Generator: Adobe Illustrator 15.0.2, SVG Export Plug-In . SVG Version: 6.00 Build 0)  -->
<!DOCTYPE svg PUBLIC "-//W3C//DTD SVG 1.1//EN" "http://www.w3.org/Graphics/SVG/1.1/DTD/svg11.dtd">
<svg version="1.1" id="Calque_1" xmlns="http://www.w3.org/2000/svg" xmlns:xlink="http://www.w3.org/1999/xlink" x="0px" y="0px"
	 width="494px" height="45px" viewBox="0 0 494 45" enable-background="new 0 0 494 45" xml:space="preserve">
<g>
	<g>
		<defs>
			<line id="SVGID_1_" x1="494.157" y1="0.671" x2="494.157" y2="45"/>
		</defs>
		<clipPath id="SVGID_2_">
			<use xlink:href="#SVGID_1_"  overflow="visible"/>
		</clipPath>
	</g>
	<g>
		<defs>
			<line id="SVGID_3_" x1="494.157" y1="0.671" x2="494.157" y2="45"/>
		</defs>
		<clipPath id="SVGID_4_">
			<use xlink:href="#SVGID_3_"  overflow="visible"/>
		</clipPath>
	</g>
	<g>
		<defs>
			<line id="SVGID_5_" x1="494.157" y1="0.671" x2="494.157" y2="45"/>
		</defs>
		<clipPath id="SVGID_6_">
			<use xlink:href="#SVGID_5_"  overflow="visible"/>
		</clipPath>
	</g>
	<g>
		<defs>
			<line id="SVGID_7_" x1="494.157" y1="0.671" x2="494.157" y2="45"/>
		</defs>
		<clipPath id="SVGID_8_">
			<use xlink:href="#SVGID_7_"  overflow="visible"/>
		</clipPath>
	</g>
	<g>
		<defs>
			<line id="SVGID_9_" x1="494.157" y1="0.671" x2="494.157" y2="45"/>
		</defs>
		<clipPath id="SVGID_10_">
			<use xlink:href="#SVGID_9_"  overflow="visible"/>
		</clipPath>
	</g>
	<g>
		<defs>
			<line id="SVGID_11_" x1="494.157" y1="0.671" x2="494.157" y2="45"/>
		</defs>
		<clipPath id="SVGID_12_">
			<use xlink:href="#SVGID_11_"  overflow="visible"/>
		</clipPath>
	</g>
	<g>
		<defs>
			<line id="SVGID_13_" x1="494.157" y1="0.671" x2="494.157" y2="45"/>
		</defs>
		<clipPath id="SVGID_14_">
			<use xlink:href="#SVGID_13_"  overflow="visible"/>
		</clipPath>
		<path clip-path="url(#SVGID_14_)" fill="#FFFFFF" d="M407.543,33.273h-3.807c-2.159,0-3.671-1.105-4.534-3.319
			c-0.675,1.053-1.971,1.62-3.833,1.62c-3.239,0-5.317-2.809-5.317-6.532c0-4.022,2.024-6.613,5.587-6.613
			c0-0.028,2.403-0.028,7.207-0.028v8.503c0,1.781,0.918,2.753,2.753,2.753h1.944V33.273z M396.422,15.891h-3.349V12.76h3.349
			V15.891z M398.959,24.745v-3.563h-2.483c-1.538,0-2.672,1.7-2.672,3.804c0,1.891,1.079,3.455,2.591,3.455
			C397.988,28.441,398.959,26.958,398.959,24.745 M401.496,15.891h-3.347V12.76h3.347V15.891z"/>
	</g>
	<g>
		<defs>
			<line id="SVGID_15_" x1="494.157" y1="0.671" x2="494.157" y2="45"/>
		</defs>
		<clipPath id="SVGID_16_">
			<use xlink:href="#SVGID_15_"  overflow="visible"/>
		</clipPath>
		<path clip-path="url(#SVGID_16_)" fill="#FFFFFF" d="M421.853,33.273h-15.196v-3.617h4.266c-0.352-0.944-0.54-1.809-0.54-2.59
			c0-1.756,0.566-3.268,1.699-4.508c1.162-1.242,2.619-1.863,4.401-1.863c2.294,0,4.236,1.296,5.184,3.429l-3.105,1.431
			c-0.352-1.053-1.053-1.594-2.158-1.594c-0.757,0-1.351,0.298-1.755,0.919c-0.379,0.513-0.566,1.188-0.566,1.997
			c0,1.432,0.513,2.376,1.511,2.779h6.263v3.617H421.853z"/>
	</g>
	<g>
		<defs>
			<line id="SVGID_17_" x1="494.157" y1="0.671" x2="494.157" y2="45"/>
		</defs>
		<clipPath id="SVGID_18_">
			<use xlink:href="#SVGID_17_"  overflow="visible"/>
		</clipPath>
		<path clip-path="url(#SVGID_18_)" fill="#FFFFFF" d="M440.051,33.273h-3.563c-0.432,2.97-2.483,4.455-6.155,4.455h-0.404v-3.023
			h0.324c1.458,0,2.321-0.54,2.617-1.594c-0.296,0.107-1.052,0.162-2.32,0.162c-3.535,0-6.127-2.563-6.127-6.153
			c0-3.646,2.537-6.101,6.127-6.101c3.455,0,5.992,2.592,5.992,6.182v2.456h3.51V33.273L440.051,33.273z M432.764,29.657v-2.618
			c0-1.594-0.945-2.618-2.321-2.618c-1.432,0-2.188,1.106-2.188,2.537c0,1.539,0.917,2.699,2.32,2.699H432.764z"/>
	</g>
	<g>
		<defs>
			<line id="SVGID_19_" x1="494.157" y1="0.671" x2="494.157" y2="45"/>
		</defs>
		<clipPath id="SVGID_20_">
			<use xlink:href="#SVGID_19_"  overflow="visible"/>
		</clipPath>
		<path clip-path="url(#SVGID_20_)" fill="#FFFFFF" d="M457.734,33.273h-4.316c-1.108,1.539-2.81,2.324-5.049,2.324
			c-2.296,0-3.995-0.785-5.13-2.324h-4.13v-3.616h3.024c0-3.888,2.211-6.315,6.127-6.315c3.94,0,6.315,2.348,6.315,6.315h3.157
			L457.734,33.273L457.734,33.273z M450.823,29.576c0-2.133-0.81-3.213-2.4-3.213h-0.271c-1.377,0-2.295,1.297-2.295,3.051
			c0,1.809,0.918,3.104,2.512,3.104C449.906,32.52,450.823,31.385,450.823,29.576"/>
	</g>
	<g>
		<defs>
			<line id="SVGID_21_" x1="494.157" y1="0.671" x2="494.157" y2="45"/>
		</defs>
		<clipPath id="SVGID_22_">
			<use xlink:href="#SVGID_21_"  overflow="visible"/>
		</clipPath>
		<path clip-path="url(#SVGID_22_)" fill="#FFFFFF" d="M479.388,33.273h-22.565v-3.617h15.332c-0.081-1.43-0.595-2.645-1.539-3.67
			c-1.053-1.161-2.456-1.756-4.156-1.756c-1.62,0-3.455,0.838-4.508,1.944c-0.378-0.514-0.999-1.351-1.891-2.563
			c1.836-1.917,4.05-2.861,6.668-2.861c1.593,0,2.995,0.297,4.211,0.863c2.889,1.377,4.589,4.049,5.048,8.044h3.4V33.273z
			 M468.698,37.755h-3.35v-3.131h3.35V37.755z"/>
	</g>
	<g>
		<defs>
			<line id="SVGID_23_" x1="494.157" y1="0.671" x2="494.157" y2="45"/>
		</defs>
		<clipPath id="SVGID_24_">
			<use xlink:href="#SVGID_23_"  overflow="visible"/>
		</clipPath>
		<path clip-path="url(#SVGID_24_)" fill="#FFFFFF" d="M494.157,29.441c0,3.617-2.43,6.156-6.207,6.156
			c-2.296,0-4.023-0.785-5.13-2.324h-4.856v-3.616h3.752c0-3.859,2.211-6.315,6.099-6.315S494.157,25.743,494.157,29.441
			 M490.406,29.576c0-2.133-0.811-3.213-2.4-3.213h-0.271c-1.376,0-2.32,1.27-2.32,3.051c0,1.836,0.918,3.104,2.538,3.104
			C489.435,32.52,490.406,31.331,490.406,29.576"/>
	</g>
</g>
<g>
	<g>
		<defs>
			<rect id="SVGID_25_" x="100.716" y="0.671" width="283.703" height="44.329"/>
		</defs>
		<clipPath id="SVGID_26_">
			<use xlink:href="#SVGID_25_"  overflow="visible"/>
		</clipPath>
		<path clip-path="url(#SVGID_26_)" fill="#EE3436" d="M122.883,0.672c-12.242,0-22.165,9.923-22.165,22.164
			c0,12.24,9.923,22.164,22.165,22.164c12.239,0,22.164-9.924,22.164-22.164C145.047,10.595,135.122,0.672,122.883,0.672"/>
	</g>
	<g>
		<defs>
			<rect id="SVGID_27_" x="100.716" y="0.671" width="283.703" height="44.329"/>
		</defs>
		<clipPath id="SVGID_28_">
			<use xlink:href="#SVGID_27_"  overflow="visible"/>
		</clipPath>
		<path clip-path="url(#SVGID_28_)" fill="#FFFFFF" d="M130.866,14.852c-1.007-1.018-2.206-1.835-3.567-2.426
			c-1.36-0.591-2.845-0.891-4.416-0.891c-1.569,0-3.055,0.3-4.415,0.891c-1.365,0.592-2.563,1.409-3.568,2.426
			c-1.004,1.017-1.813,2.224-2.405,3.59c-0.593,1.36-0.892,2.847-0.892,4.416c0,1.566,0.299,3.053,0.891,4.416
			c0.592,1.363,1.401,2.563,2.406,3.567c1.002,1.003,2.203,1.813,3.568,2.405c1.362,0.591,2.846,0.891,4.414,0.891
			c1.57,0,3.055-0.3,4.417-0.891c1.362-0.594,2.563-1.402,3.568-2.405c1.004-1.006,1.812-2.204,2.404-3.569
			c0.592-1.361,0.892-2.846,0.892-4.415c0-1.568-0.3-3.054-0.892-4.415C132.679,17.079,131.869,15.869,130.866,14.852
			 M129.122,25.479c-0.362,0.824-0.853,1.549-1.457,2.154c-0.605,0.608-1.328,1.1-2.149,1.461c-0.824,0.361-1.709,0.545-2.633,0.545
			c-0.924,0.002-1.811-0.184-2.634-0.545c-0.82-0.361-1.544-0.853-2.15-1.46c-0.605-0.608-1.095-1.335-1.455-2.155
			c-0.36-0.826-0.543-1.715-0.543-2.643s0.183-1.817,0.543-2.641c0.36-0.823,0.85-1.547,1.455-2.155
			c0.606-0.609,1.33-1.101,2.15-1.46c0.823-0.365,1.709-0.548,2.634-0.548c0.925,0.001,1.811,0.184,2.633,0.548
			c0.821,0.359,1.544,0.852,2.149,1.46c0.604,0.605,1.095,1.331,1.456,2.155C129.843,21.846,129.845,23.822,129.122,25.479"/>
	</g>
	<g>
		<defs>
			<rect id="SVGID_29_" x="100.716" y="0.671" width="283.703" height="44.329"/>
		</defs>
		<clipPath id="SVGID_30_">
			<use xlink:href="#SVGID_29_"  overflow="visible"/>
		</clipPath>
		<path clip-path="url(#SVGID_30_)" fill="#EE3436" d="M162.778,0.672c-12.24,0-22.165,9.923-22.165,22.164
			c0,12.24,9.925,22.164,22.165,22.164s22.164-9.924,22.164-22.164C184.942,10.595,175.018,0.672,162.778,0.672"/>
	</g>
	<g>
		<defs>
			<rect id="SVGID_31_" x="100.716" y="0.671" width="283.703" height="44.329"/>
		</defs>
		<clipPath id="SVGID_32_">
			<use xlink:href="#SVGID_31_"  overflow="visible"/>
		</clipPath>
		<path clip-path="url(#SVGID_32_)" fill="#FFFFFF" d="M170.761,14.852c-1.005-1.018-2.206-1.835-3.567-2.426
			c-1.359-0.591-2.845-0.891-4.415-0.891c-1.569,0-3.055,0.3-4.416,0.891c-1.363,0.592-2.563,1.409-3.567,2.426
			c-1.004,1.017-1.814,2.224-2.405,3.59c-0.592,1.36-0.892,2.847-0.892,4.416c0,1.566,0.3,3.053,0.891,4.416
			c0.591,1.363,1.401,2.563,2.406,3.567c1.003,1.003,2.204,1.813,3.567,2.405c1.362,0.591,2.848,0.891,4.415,0.891
			c1.569,0,3.055-0.3,4.416-0.891c1.362-0.594,2.563-1.402,3.568-2.405c1.004-1.006,1.813-2.204,2.406-3.569
			c0.592-1.361,0.891-2.846,0.891-4.415c0-1.568-0.299-3.054-0.891-4.415C172.574,17.079,171.765,15.869,170.761,14.852
			 M169.017,25.479c-0.361,0.824-0.852,1.549-1.456,2.154c-0.604,0.608-1.329,1.1-2.148,1.461c-0.824,0.361-1.71,0.545-2.634,0.545
			c-0.925,0.002-1.81-0.184-2.634-0.545c-0.82-0.361-1.545-0.853-2.149-1.46c-0.606-0.608-1.097-1.335-1.456-2.155
			c-0.361-0.826-0.543-1.715-0.543-2.643s0.182-1.817,0.543-2.641c0.359-0.823,0.85-1.547,1.456-2.155
			c0.604-0.609,1.329-1.101,2.149-1.46c0.823-0.365,1.708-0.548,2.634-0.548c0.926,0.001,1.811,0.184,2.634,0.548
			c0.819,0.359,1.544,0.852,2.148,1.46c0.604,0.605,1.095,1.331,1.455,2.155C169.739,21.846,169.74,23.822,169.017,25.479"/>
	</g>
	<g>
		<defs>
			<rect id="SVGID_33_" x="100.716" y="0.671" width="283.703" height="44.329"/>
		</defs>
		<clipPath id="SVGID_34_">
			<use xlink:href="#SVGID_33_"  overflow="visible"/>
		</clipPath>
		<path clip-path="url(#SVGID_34_)" fill="#EE3436" d="M322.359,0.672c-12.24,0-22.164,9.923-22.164,22.164
			c0,12.24,9.924,22.164,22.164,22.164c12.238,0,22.163-9.924,22.163-22.164C344.522,10.595,334.598,0.672,322.359,0.672"/>
	</g>
	<g>
		<defs>
			<rect id="SVGID_35_" x="100.716" y="0.671" width="283.703" height="44.329"/>
		</defs>
		<clipPath id="SVGID_36_">
			<use xlink:href="#SVGID_35_"  overflow="visible"/>
		</clipPath>
		<path clip-path="url(#SVGID_36_)" fill="#FFFFFF" d="M330.342,14.852c-1.005-1.018-2.206-1.835-3.566-2.426
			c-1.359-0.591-2.846-0.891-4.415-0.891c-1.571,0-3.056,0.3-4.417,0.891c-1.364,0.592-2.563,1.409-3.566,2.426
			c-1.005,1.017-1.813,2.224-2.406,3.59c-0.591,1.36-0.892,2.847-0.892,4.416c0,1.566,0.301,3.053,0.891,4.416
			c0.594,1.363,1.401,2.563,2.407,3.567c1.003,1.003,2.202,1.813,3.566,2.405c1.362,0.591,2.848,0.891,4.416,0.891
			s3.054-0.3,4.416-0.891c1.362-0.594,2.563-1.402,3.567-2.405c1.003-1.006,1.813-2.204,2.405-3.569
			c0.592-1.361,0.891-2.846,0.891-4.415c0-1.568-0.299-3.054-0.891-4.415C332.156,17.079,331.345,15.869,330.342,14.852
			 M328.598,25.479c-0.359,0.824-0.853,1.549-1.455,2.154c-0.606,0.608-1.328,1.1-2.148,1.461c-0.825,0.361-1.709,0.545-2.634,0.545
			c-0.924,0.002-1.811-0.184-2.634-0.545c-0.82-0.361-1.547-0.853-2.149-1.46c-0.606-0.608-1.096-1.335-1.458-2.155
			c-0.359-0.826-0.542-1.715-0.542-2.643s0.183-1.817,0.542-2.641c0.362-0.823,0.852-1.547,1.458-2.155
			c0.604-0.609,1.329-1.101,2.149-1.46c0.821-0.365,1.709-0.548,2.634-0.548c0.926,0.001,1.811,0.184,2.634,0.548
			c0.82,0.359,1.542,0.852,2.148,1.46c0.604,0.605,1.096,1.331,1.454,2.155C329.32,21.846,329.321,23.822,328.598,25.479"/>
	</g>
	<g>
		<defs>
			<rect id="SVGID_37_" x="100.716" y="0.671" width="283.703" height="44.329"/>
		</defs>
		<clipPath id="SVGID_38_">
			<use xlink:href="#SVGID_37_"  overflow="visible"/>
		</clipPath>
		<path clip-path="url(#SVGID_38_)" fill="#EE3436" d="M362.254,0.672c-12.24,0-22.164,9.923-22.164,22.164
			c0,12.24,9.924,22.164,22.164,22.164c12.238,0,22.162-9.924,22.162-22.164C384.416,10.595,374.492,0.672,362.254,0.672"/>
	</g>
	<g>
		<defs>
			<rect id="SVGID_39_" x="100.716" y="0.671" width="283.703" height="44.329"/>
		</defs>
		<clipPath id="SVGID_40_">
			<use xlink:href="#SVGID_39_"  overflow="visible"/>
		</clipPath>
		<path clip-path="url(#SVGID_40_)" fill="#FFFFFF" d="M370.237,14.852c-1.006-1.018-2.206-1.835-3.566-2.426
			c-1.359-0.591-2.847-0.891-4.415-0.891c-1.571,0-3.057,0.3-4.416,0.891c-1.365,0.592-2.563,1.409-3.568,2.426
			c-1.003,1.017-1.813,2.224-2.405,3.59c-0.592,1.36-0.893,2.847-0.893,4.416c0,1.566,0.301,3.053,0.892,4.416
			c0.593,1.363,1.4,2.563,2.406,3.567c1.003,1.003,2.203,1.813,3.568,2.405c1.361,0.591,2.847,0.891,4.415,0.891
			c1.567,0,3.053-0.3,4.416-0.891c1.361-0.594,2.563-1.402,3.566-2.405c1.003-1.006,1.813-2.204,2.405-3.569
			c0.592-1.361,0.891-2.846,0.891-4.415c0-1.568-0.299-3.054-0.891-4.415C372.051,17.079,371.239,15.869,370.237,14.852
			 M368.493,25.479c-0.36,0.824-0.854,1.549-1.457,2.154c-0.605,0.608-1.327,1.1-2.148,1.461c-0.825,0.361-1.709,0.545-2.633,0.545
			c-0.925,0.002-1.812-0.184-2.635-0.545c-0.819-0.361-1.547-0.853-2.149-1.46c-0.606-0.608-1.095-1.335-1.456-2.155
			c-0.361-0.826-0.543-1.715-0.543-2.643s0.182-1.817,0.543-2.641c0.361-0.823,0.85-1.547,1.456-2.155
			c0.604-0.609,1.33-1.101,2.149-1.46c0.822-0.365,1.709-0.548,2.635-0.548c0.925,0.001,1.811,0.184,2.633,0.548
			c0.821,0.359,1.543,0.852,2.148,1.46c0.604,0.605,1.097,1.331,1.455,2.155C369.215,21.846,369.217,23.822,368.493,25.479"/>
	</g>
	<g>
		<defs>
			<rect id="SVGID_41_" x="100.716" y="0.671" width="283.703" height="44.329"/>
		</defs>
		<clipPath id="SVGID_42_">
			<use xlink:href="#SVGID_41_"  overflow="visible"/>
		</clipPath>
		<path clip-path="url(#SVGID_42_)" fill="#EE3436" d="M202.673,0.672c-12.241,0-22.164,9.923-22.164,22.164
			c0,12.24,9.923,22.164,22.164,22.164c12.24,0,22.164-9.924,22.164-22.164C224.837,10.595,214.913,0.672,202.673,0.672"/>
	</g>
	<g>
		<defs>
			<rect id="SVGID_43_" x="100.716" y="0.671" width="283.703" height="44.329"/>
		</defs>
		<clipPath id="SVGID_44_">
			<use xlink:href="#SVGID_43_"  overflow="visible"/>
		</clipPath>
		<path clip-path="url(#SVGID_44_)" fill="#FFFFFF" d="M207.486,17.963c0.606,0.606,1.097,1.33,1.455,2.15
			c0.205,0.466,0.346,0.953,0.435,1.454h4.55c-0.114-1.137-0.391-2.222-0.832-3.235c-0.593-1.363-1.402-2.564-2.407-3.569
			c-1.004-1.003-2.204-1.814-3.566-2.405c-1.362-0.593-2.848-0.892-4.416-0.892c-1.57,0-3.056,0.293-4.417,0.872
			c-1.363,0.575-2.57,1.379-3.588,2.384c-1.019,1.005-1.828,2.205-2.405,3.565c-0.577,1.363-0.87,2.861-0.87,4.46v10.714h4.497
			v-2.182v-8.843h0.015c0.037-0.812,0.209-1.592,0.529-2.323c0.362-0.821,0.851-1.544,1.456-2.15
			c0.604-0.604,1.328-1.095,2.148-1.455c1.649-0.723,3.619-0.723,5.268,0C206.157,16.868,206.881,17.359,207.486,17.963"/>
	</g>
	<g>
		<defs>
			<rect id="SVGID_45_" x="100.716" y="0.671" width="283.703" height="44.329"/>
		</defs>
		<clipPath id="SVGID_46_">
			<use xlink:href="#SVGID_45_"  overflow="visible"/>
		</clipPath>
		<path clip-path="url(#SVGID_46_)" fill="#EE3436" d="M242.568,0.672c-12.239,0-22.164,9.924-22.164,22.164
			c0,12.24,9.925,22.164,22.164,22.164c12.24,0,22.165-9.924,22.165-22.164C264.733,10.596,254.808,0.672,242.568,0.672"/>
	</g>
	<g>
		<defs>
			<rect id="SVGID_47_" x="100.716" y="0.671" width="283.703" height="44.329"/>
		</defs>
		<clipPath id="SVGID_48_">
			<use xlink:href="#SVGID_47_"  overflow="visible"/>
		</clipPath>
		<path clip-path="url(#SVGID_48_)" fill="#FFFFFF" d="M253.02,18.668c-0.537-1.389-1.298-2.632-2.262-3.693
			c-0.961-1.058-2.148-1.916-3.523-2.549c-1.374-0.631-2.951-0.953-4.685-0.953c-1.57,0-3.055,0.3-4.416,0.892
			c-1.364,0.593-2.568,1.402-3.576,2.405c-1.01,1.006-1.817,2.205-2.405,3.569c-0.586,1.36-0.883,2.845-0.883,4.415
			c0,1.568,0.297,3.055,0.882,4.417c0.589,1.363,1.397,2.563,2.406,3.565c1.008,1.006,2.212,1.813,3.576,2.406
			c1.361,0.592,2.846,0.892,4.416,0.892c1.156,0,2.324-0.16,3.47-0.479c1.143-0.316,2.224-0.824,3.21-1.512
			c0.989-0.686,1.881-1.592,2.652-2.693c0.729-1.043,1.332-2.313,1.794-3.779h-4.959c-0.492,1.184-1.265,2.143-2.298,2.854
			c-1.07,0.736-2.373,1.111-3.869,1.111c-0.896,0-1.758-0.169-2.567-0.5c-0.805-0.332-1.522-0.792-2.129-1.37
			c-0.604-0.577-1.103-1.266-1.477-2.041c-0.376-0.782-0.582-1.633-0.61-2.525l-0.006-0.208h18.105
			C253.817,21.42,253.533,20.001,253.02,18.668 M236.582,19.028l0.185-0.303c1.103-1.797,3.06-2.752,5.82-2.839h0.007
			c2.706,0.03,4.637,0.986,5.741,2.841l0.179,0.301H236.582z"/>
	</g>
	<g>
		<defs>
			<rect id="SVGID_49_" x="100.716" y="0.671" width="283.703" height="44.329"/>
		</defs>
		<clipPath id="SVGID_50_">
			<use xlink:href="#SVGID_49_"  overflow="visible"/>
		</clipPath>
		<path clip-path="url(#SVGID_50_)" fill="#EE3436" d="M282.464,0.672c2.366,0,4.646,0.375,6.782,1.062v12.402l-0.334-0.309
			c-0.353-0.326-0.78-0.635-1.272-0.924c-0.493-0.288-1.029-0.544-1.598-0.766c-0.563-0.22-1.156-0.402-1.767-0.54
			c-0.601-0.137-1.212-0.207-1.813-0.207c-1.567,0-3.054,0.301-4.415,0.891c-1.363,0.593-2.563,1.403-3.567,2.406
			c-1.004,1.005-1.814,2.206-2.407,3.568c-0.589,1.362-0.89,2.847-0.89,4.416c0,1.567,0.301,3.054,0.89,4.415
			c0.594,1.363,1.403,2.564,2.407,3.566c1.004,1.007,2.204,1.816,3.567,2.406c1.36,0.592,2.848,0.893,4.415,0.893
			s3.056-0.293,4.418-0.87c1.362-0.579,2.57-1.381,3.588-2.386c1.017-1.002,1.827-2.202,2.403-3.565
			c0.578-1.36,0.871-2.862,0.871-4.459V3.758c6.516,3.861,10.883,10.957,10.883,19.078c0,12.24-9.923,22.164-22.163,22.164
			S260.3,35.076,260.3,22.836C260.3,10.596,270.224,0.672,282.464,0.672"/>
	</g>
	<g>
		<defs>
			<rect id="SVGID_51_" x="100.716" y="0.671" width="283.703" height="44.329"/>
		</defs>
		<clipPath id="SVGID_52_">
			<use xlink:href="#SVGID_51_"  overflow="visible"/>
		</clipPath>
		<path clip-path="url(#SVGID_52_)" fill="#EE3436" d="M287.247,27.454c-0.606,0.604-1.329,1.096-2.149,1.455
			c-0.824,0.36-1.708,0.545-2.634,0.545c-0.925,0-1.812-0.185-2.633-0.545c-0.821-0.359-1.545-0.851-2.15-1.455
			c-0.604-0.606-1.094-1.329-1.454-2.149c-0.361-0.826-0.545-1.711-0.545-2.634c0-0.924,0.184-1.809,0.545-2.635
			c0.36-0.82,0.85-1.544,1.454-2.148c0.604-0.606,1.329-1.096,2.15-1.455c1.646-0.723,3.617-0.723,5.267,0
			c0.822,0.359,1.546,0.849,2.149,1.455c0.604,0.605,1.096,1.329,1.455,2.148c0.36,0.823,0.545,1.71,0.545,2.635
			s-0.185,1.812-0.545,2.634C288.343,26.124,287.853,26.848,287.247,27.454"/>
	</g>
	<g>
		<defs>
			<rect id="SVGID_53_" x="100.716" y="0.671" width="283.703" height="44.329"/>
		</defs>
		<clipPath id="SVGID_54_">
			<use xlink:href="#SVGID_53_"  overflow="visible"/>
		</clipPath>
		<path clip-path="url(#SVGID_54_)" fill="#FFFFFF" d="M293.743,22.671V3.758c-1.404-0.833-2.912-1.516-4.496-2.024v12.403
			l-0.335-0.31c-0.353-0.326-0.78-0.636-1.273-0.923c-0.493-0.288-1.029-0.546-1.596-0.767c-0.565-0.22-1.157-0.402-1.768-0.54
			c-0.601-0.137-1.212-0.207-1.813-0.207c-1.568,0-3.054,0.301-4.414,0.891c-1.365,0.593-2.564,1.403-3.57,2.407
			c-1.003,1.004-1.813,2.205-2.403,3.567c-0.592,1.362-0.891,2.847-0.891,4.416c0,1.567,0.299,3.054,0.891,4.415
			c0.593,1.363,1.4,2.563,2.403,3.566c1.006,1.006,2.205,1.815,3.57,2.406c1.36,0.59,2.846,0.893,4.414,0.893
			c1.567,0,3.055-0.293,4.418-0.87c1.364-0.58,2.57-1.384,3.588-2.386c1.017-1.004,1.827-2.202,2.404-3.565
			C293.451,25.768,293.743,24.268,293.743,22.671 M289.247,22.671c0,0.925-0.186,1.812-0.545,2.634
			c-0.359,0.819-0.852,1.543-1.455,2.149c-0.606,0.604-1.329,1.095-2.149,1.455c-0.823,0.36-1.708,0.545-2.634,0.545
			c-0.925,0-1.812-0.185-2.633-0.545s-1.545-0.851-2.149-1.455c-0.605-0.606-1.095-1.329-1.455-2.149
			c-0.361-0.826-0.545-1.711-0.545-2.634c0-0.924,0.184-1.809,0.545-2.633c0.36-0.822,0.85-1.546,1.455-2.15
			c0.604-0.606,1.327-1.094,2.149-1.455c1.646-0.723,3.617-0.723,5.267,0c0.822,0.361,1.546,0.849,2.149,1.455
			c0.604,0.605,1.096,1.329,1.455,2.15C289.063,20.859,289.247,21.746,289.247,22.671"/>
	</g>
</g>
</svg>
