<?xml version="1.0" encoding="utf-8"?>
<!-- Generator: Adobe Illustrator 15.0.2, SVG Export Plug-In . SVG Version: 6.00 Build 0)  -->
<!DOCTYPE svg PUBLIC "-//W3C//DTD SVG 1.1//EN" "http://www.w3.org/Graphics/SVG/1.1/DTD/svg11.dtd">
<svg version="1.1" id="Calque_1" xmlns="http://www.w3.org/2000/svg" xmlns:xlink="http://www.w3.org/1999/xlink" x="0px" y="0px"
	 width="201px" height="94px" viewBox="0 0 201 94" enable-background="new 0 0 201 94" xml:space="preserve">
<g>
	<path fill="#ED1C24" d="M128.142,89.781c-9.172,0-16.601-7.432-16.601-16.595V0.936h72.235c9.173,0,16.605,7.438,16.605,16.608
		v72.237H128.142z"/>
	<path fill="#FFFFFF" d="M163.4,52.823c0,0.508-0.581,0.923-1.297,0.923c-0.719,0-1.296-0.415-1.296-0.923
		c0-0.51,0.577-0.921,1.296-0.921C162.819,51.902,163.4,52.313,163.4,52.823"/>
	<path fill="#FFFFFF" d="M150.409,52.823c0,0.508-0.578,0.923-1.298,0.923c-0.719,0-1.298-0.415-1.298-0.923
		c0-0.51,0.579-0.921,1.298-0.921C149.831,51.902,150.409,52.313,150.409,52.823"/>
	<polygon fill="#FFFFFF" points="125.352,48.771 122.647,48.771 122.647,47.694 130.257,47.694 130.257,48.771 127.552,48.771 
		127.552,67.576 125.352,67.576 	"/>
	<rect x="148.014" y="54.983" fill="#FFFFFF" width="2.113" height="12.593"/>
	<path fill="#FFFFFF" d="M154.245,63.257v2.447c0,0.797,0.381,1.103,1.349,1.103c0.918,0,1.334-0.333,1.334-1.103V63.59
		c0-0.944-0.213-1.199-1.307-1.636l-2.097-0.867c-1.167-0.459-1.401-0.788-1.401-1.914V56.9c0-1.507,0.973-2.122,3.439-2.122
		c2.482,0,3.472,0.615,3.472,2.122v2.166h-2.106v-2.22c0-0.811-0.416-1.122-1.381-1.122c-0.921,0-1.302,0.334-1.302,1.122v1.911
		c0,0.845,0.101,0.981,1.065,1.358l2.402,0.994c0.998,0.388,1.321,0.844,1.321,1.816v2.698c0,1.539-0.989,2.123-3.472,2.123
		c-2.445,0-3.439-0.584-3.439-2.093v-2.398H154.245z"/>
	<rect x="161.003" y="54.983" fill="#FFFFFF" width="2.117" height="12.593"/>
	<path fill="#FFFFFF" d="M144.064,54.849c-1.118,0-2.193,0.694-2.912,1.32v-1.186h-2.127v12.593h2.127V56.404
		c0.392-0.153,0.848-0.226,1.298-0.162c1.018,0.134,1.249,0.603,1.249,1.198v10.136h2.115V56.951
		C145.814,55.927,145.515,54.849,144.064,54.849"/>
	<path fill="#FFFFFF" d="M178.988,54.849c-1.133,0-2.198,0.694-2.927,1.32v-1.186h-2.112v12.593h2.112V56.404
		c0.396-0.153,0.857-0.226,1.307-0.162c1.009,0.134,1.254,0.603,1.254,1.198v10.136h2.108V56.951
		C180.73,55.927,180.438,54.849,178.988,54.849"/>
	<path fill="#FFFFFF" d="M131.679,67.71c1.137,0,2.312-0.702,3.035-1.321v1.188h2.125V54.983h-2.125v11.174
		c-0.396,0.153-0.851,0.221-1.301,0.165c-1.013-0.141-1.362-0.607-1.362-1.201V54.983h-2.118v10.625
		C129.933,66.628,130.233,67.71,131.679,67.71"/>
	<path fill="#FFFFFF" d="M189.469,66.699v-9.917c0-1.456-0.896-2.021-3.248-2.021c-2.457,0-3.534,0.594-3.534,1.945v2.713h2.03
		v-2.637c0-0.767,0.324-1.049,1.224-1.049c1.049,0,1.403,0.282,1.403,1.074v2.667v0.163c-0.422,0.196-0.531,0.249-1.326,0.556
		l-1.138,0.435c-0.443,0.155-0.746,0.254-0.981,0.357c-0.276,0.102-0.506,0.234-0.71,0.354c-0.181,0.131-0.337,0.309-0.438,0.52
		c-0.111,0.29-0.141,0.434-0.146,0.943h-0.008v2.847c0,1.015,0.519,2.099,1.969,2.099c1.11,0,2.054-0.677,2.779-1.285l0.104,1.113
		h2.146C189.513,67.287,189.488,67.11,189.469,66.699 M187.344,66.21c-0.384,0.144-0.83,0.209-1.267,0.146
		c-1.015-0.134-1.358-0.596-1.358-1.201v-2.432c0-0.894,0.124-1.052,1.708-1.661c0.407-0.153,0.661-0.257,0.765-0.279l0.152-0.079
		V66.21z"/>
	<path fill="#FFFFFF" d="M171.85,66.699v-9.917c0-1.456-0.886-2.021-3.245-2.021c-2.454,0-3.527,0.594-3.527,1.945v2.713h2.022
		v-2.637c0-0.767,0.327-1.049,1.229-1.049c1.05,0,1.406,0.282,1.406,1.074v2.667v0.163c-0.438,0.196-0.538,0.249-1.326,0.556
		l-1.15,0.435c-0.432,0.155-0.739,0.254-0.968,0.357c-0.285,0.102-0.509,0.234-0.715,0.354c-0.182,0.131-0.335,0.309-0.438,0.52
		c-0.111,0.29-0.147,0.434-0.147,0.943h-0.007v2.847c0,1.015,0.516,2.099,1.962,2.099c1.117,0,2.064-0.677,2.789-1.285l0.101,1.113
		h2.141C171.908,67.287,171.876,67.11,171.85,66.699 M169.735,66.21c-0.388,0.144-0.836,0.209-1.271,0.146
		c-1.017-0.134-1.36-0.596-1.36-1.201v-2.432c0-0.894,0.127-1.052,1.714-1.661c0.41-0.153,0.658-0.257,0.762-0.279l0.155-0.079
		V66.21z"/>
	<polygon fill="#FFFFFF" points="129.964,38.485 127.451,38.485 126.443,38.485 125.211,38.485 125.211,19.937 122.647,19.937 
		122.647,39.805 126.443,39.805 127.451,39.805 132.503,39.805 132.503,27.248 129.964,27.248 	"/>
	<polygon fill="#FFFFFF" points="144.064,38.485 141.094,38.485 140.08,38.485 138.093,38.485 138.093,19.937 135.549,19.937 
		135.549,39.805 140.08,39.805 141.094,39.805 146.612,39.805 146.612,27.269 144.064,27.269 	"/>
	<path fill="#FFFFFF" d="M166.301,38.485h-1.637h-1.137h-2.019V27.269h-2.552v11.217h-1.262h-1.393h-1.418V27.04h-2.559v12.897
		c-0.271,1.047-1.669,1.685-4.998,2.064c0.146,0,0.393,0.023,0.747,0.074c0.357,0.044,0.633,0.07,0.835,0.07
		c2.456,0,3.794-0.22,4.7-0.709c0.897-0.49,1.266-1.07,1.568-1.633h1.124h1.393h5.832h1.137h4.168V27.248h-2.531V38.485z"/>
	<path fill="#FFFFFF" d="M155.008,25.123c0,0.412-0.6,0.74-1.341,0.74c-0.745,0-1.341-0.328-1.341-0.74
		c0-0.408,0.596-0.733,1.341-0.733C154.408,24.39,155.008,24.715,155.008,25.123"/>
	<path fill="#FFFFFF" d="M132.543,25.164c0,0.407-0.598,0.734-1.346,0.734c-0.74,0-1.33-0.327-1.33-0.734
		c0-0.408,0.59-0.732,1.33-0.732C131.945,24.432,132.543,24.756,132.543,25.164"/>
	<path fill="#FFFFFF" d="M168.899,25.123c0,0.412-0.6,0.74-1.338,0.74c-0.751,0-1.347-0.328-1.347-0.74
		c0-0.408,0.596-0.733,1.347-0.733C168.3,24.39,168.899,24.715,168.899,25.123"/>
	<path fill="#FFD12C" d="M189.871,25.402c0,0.575-0.758,1.04-1.69,1.04c-0.935,0-1.691-0.465-1.691-1.04
		c0-0.565,0.757-1.029,1.691-1.029C189.113,24.373,189.871,24.837,189.871,25.402"/>
	<path fill="#FFD12C" d="M186.045,25.402c0,0.575-0.753,1.04-1.695,1.04c-0.928,0-1.69-0.465-1.69-1.04
		c0-0.565,0.763-1.029,1.69-1.029C185.292,24.373,186.045,24.837,186.045,25.402"/>
	<path fill="#FFFFFF" d="M163.324,41.479c0,0.407-0.602,0.733-1.338,0.733c-0.748,0-1.342-0.326-1.342-0.733
		c0-0.41,0.594-0.74,1.342-0.74C162.723,40.738,163.324,41.068,163.324,41.479"/>
	<path fill="#FFFFFF" d="M160.288,41.479c0,0.407-0.598,0.733-1.334,0.733c-0.747,0-1.347-0.326-1.347-0.733
		c0-0.41,0.6-0.74,1.347-0.74C159.69,40.738,160.288,41.068,160.288,41.479"/>
	<path fill="#FFFFFF" d="M146.397,41.479c0,0.407-0.604,0.733-1.343,0.733c-0.744,0-1.34-0.326-1.34-0.733
		c0-0.41,0.596-0.74,1.34-0.74C145.793,40.738,146.397,41.068,146.397,41.479"/>
	<path fill="#FFFFFF" d="M143.364,41.479c0,0.407-0.6,0.733-1.342,0.733c-0.743,0-1.341-0.326-1.341-0.733
		c0-0.41,0.598-0.74,1.341-0.74C142.765,40.738,143.364,41.068,143.364,41.479"/>
	<path fill="#FFFFFF" d="M186.939,27.099v11.387h-5.386V27.269h-5.297c-1.219,0-2.289,0.247-3.211,0.736
		c-0.915,0.492-1.365,1.04-1.365,1.647v8.192c0,1.304,1.74,1.96,5.242,1.96h2.101l-0.019,0.269c0,0.829-1.637,1.476-4.928,1.929
		c0.193,0.048,0.475,0.081,0.839,0.111c0.357,0.021,0.644,0.033,0.824,0.033c2.03,0,3.052-0.102,4.012-0.569
		c0.966-0.476,1.303-0.869,1.802-1.772h7.72V27.099H186.939z M179.005,39.199c-1.784,0-4.791-0.173-4.791-1.009v-9.398
		c0-0.837,3.007-1.01,4.791-1.01V39.199z"/>
	<path fill="#ED1C24" d="M20.402,89.443h-0.159c-1.856,0-3.229-0.455-4.123-1.349c-0.708,3.091-3.958,5.148-7.688,5.148
		c-4.579,0-8.195-3.361-8.195-7.804v-2.746h3.206v2.45c0,3.065,1.807,5.126,5.058,5.126c2.472,0,4.827-1.555,4.827-3.686
		c0-1.212-1.029-2.016-2.129-2.016c-0.182,0-0.364,0.024-0.549,0.07v-2.794c0-0.021,0.458-0.021,1.397-0.021
		c2.313,0,4.028,1.05,5.124,3.157c0.551,1.054,1.354,1.399,2.729,1.399h0.502V89.443z"/>
	<path fill="#ED1C24" d="M26.764,85.03c0,1.209-0.342,2.217-1.004,3.019c-0.758,0.939-1.809,1.395-3.161,1.395h-3.021V86.38h2.357
		c1.078,0,1.625-0.758,1.625-2.246v-9.429h3.203V85.03z"/>
	<path fill="#ED1C24" d="M35.581,73.247c0.021,0.138,0.042,0.272,0.042,0.391c0,0.892-0.594,1.555-1.737,1.555
		c-0.896,0-1.559-0.594-1.559-1.694c0-0.962,0.595-1.533,1.765-1.533C34.891,71.965,35.398,72.401,35.581,73.247 M33.977,72.674
		c-0.507,0-0.754,0.299-0.754,0.757c0,0.707,0.247,1.053,0.754,1.053c0.479,0,0.754-0.322,0.754-0.78
		C34.73,73.177,34.456,72.674,33.977,72.674"/>
	<path fill="#ED1C24" d="M39.424,88.988c0,2.813-1.74,4.233-5.243,4.233h-0.316v-2.563h0.205c1.28,0,2.543-0.894,2.543-2.129
		c-0.438,0.71-1.193,1.051-2.268,1.051c-2.954,0-5.152-2.24-5.152-5.306c0-3.137,2.152-5.244,5.152-5.244
		c2.949,0,5.079,2.265,5.079,5.287V88.988z M36.221,84.317c0-1.396-0.802-2.381-1.947-2.381c-1.119,0-1.876,0.96-1.876,2.314
		c0,1.28,0.731,2.354,1.991,2.354C35.532,86.605,36.221,85.713,36.221,84.317"/>
	<path fill="#ED1C24" d="M46.154,74.89h-4.097v-1.169h0.893c-0.069-0.205-0.093-0.412-0.093-0.594c0-1.03,0.733-1.833,1.716-1.833
		c0.73,0,1.239,0.364,1.535,1.077l-1.03,0.479c-0.094-0.317-0.251-0.479-0.505-0.479c-0.341,0-0.522,0.228-0.522,0.686
		c0,0.343,0.11,0.571,0.317,0.643h1.786V74.89z M53.616,85.69c0,1.121-0.368,2.014-1.122,2.726
		c-0.756,0.685-1.695,1.027-2.816,1.027h-7.6V86.38h3.411l-2.885-10.143h3.388l2.841,10.143c1.073-0.025,1.622-0.805,1.622-2.338
		v-9.337h3.161V85.69z"/>
	<rect x="56.226" y="74.681" fill="#ED1C24" width="3.202" height="14.763"/>
	<path fill="#ED1C24" d="M90.145,89.443H74.584c-5.061,0-7.577-2.127-7.577-6.406v-3.983h3.159v3.983c0,1.35,0.433,2.287,1.28,2.767
		c0.664,0.392,1.715,0.576,3.203,0.576h7.301c1.076,0,1.626-0.736,1.626-2.199v-5.103h3.203v4.991c0,0.843-0.114,1.597-0.367,2.311
		h3.732V89.443z M76.298,79.078h-2.86v-2.656h2.86V79.078z M80.625,79.078h-2.863v-2.656h2.863V79.078z"/>
	<path fill="#ED1C24" d="M96.577,85.03c0,1.209-0.342,2.217-1.007,3.019c-0.755,0.939-1.807,1.395-3.132,1.395h-2.727V86.38h2.039
		c1.073,0,1.621-0.758,1.621-2.246v-5.056h3.205V85.03z M96.373,77.336h-2.861v-2.631h2.861V77.336z"/>
	<path fill="#ED1C24" d="M102.646,94h-4.123v-1.169h0.916c-0.066-0.226-0.115-0.435-0.115-0.616c0-1.029,0.734-1.834,1.761-1.834
		c0.711,0,1.237,0.366,1.535,1.078l-1.028,0.482c-0.115-0.297-0.299-0.461-0.528-0.461c-0.344,0-0.528,0.228-0.528,0.688
		c0,0.344,0.094,0.573,0.304,0.643h1.808V94z M102.392,89.443h-3.203V74.681h3.203V89.443z"/>
</g>
</svg>
