<?xml version="1.0" encoding="utf-8"?>
<!-- Generator: Adobe Illustrator 15.0.2, SVG Export Plug-In . SVG Version: 6.00 Build 0)  -->
<!DOCTYPE svg PUBLIC "-//W3C//DTD SVG 1.1//EN" "http://www.w3.org/Graphics/SVG/1.1/DTD/svg11.dtd">
<svg version="1.1" id="Calque_1" xmlns="http://www.w3.org/2000/svg" xmlns:xlink="http://www.w3.org/1999/xlink" x="0px" y="0px"
	 width="494px" height="93.064px" viewBox="0 0 494 93.064" enable-background="new 0 0 494 93.064" xml:space="preserve">
<g>
	<defs>
		<rect id="SVGID_1_" x="1" y="48.735" width="493.158" height="44.329"/>
	</defs>
	<clipPath id="SVGID_2_">
		<use xlink:href="#SVGID_1_"  overflow="visible"/>
	</clipPath>
	<path clip-path="url(#SVGID_2_)" fill="#FFFFFF" d="M15.001,67.951c-0.308-1.327-1.059-2.254-2.254-2.782
		c-0.668-0.29-1.411-0.435-2.228-0.435c-1.565,0-2.851,0.59-3.856,1.77c-1.007,1.18-1.51,2.954-1.51,5.322
		c0,2.387,0.545,4.075,1.635,5.066c1.089,0.991,2.329,1.487,3.717,1.487c1.363,0,2.479-0.392,3.349-1.173
		c0.87-0.782,1.406-1.806,1.608-3.073h-4.495v-3.243h8.095v10.428h-2.69l-0.409-2.426c-0.782,0.919-1.485,1.566-2.109,1.942
		c-1.072,0.656-2.391,0.984-3.955,0.984c-2.575,0-4.685-0.892-6.328-2.675C1.857,77.353,1,74.903,1,71.793
		c0-3.145,0.866-5.665,2.597-7.563c1.732-1.897,4.021-2.845,6.869-2.845c2.47,0,4.453,0.626,5.952,1.878s2.358,2.815,2.578,4.687
		H15.001z"/>
	<path clip-path="url(#SVGID_2_)" fill="#FFFFFF" d="M30.617,66.613c0.048,0.004,0.156,0.011,0.323,0.02v3.849
		c-0.238-0.026-0.448-0.044-0.633-0.053c-0.185-0.008-0.334-0.012-0.448-0.012c-1.512,0-2.527,0.492-3.046,1.476
		c-0.29,0.553-0.435,1.406-0.435,2.557v6.869h-3.783v-14.37h3.585v2.505c0.581-0.958,1.086-1.612,1.517-1.965
		c0.703-0.588,1.617-0.883,2.742-0.883C30.509,66.606,30.568,66.608,30.617,66.613"/>
	<path clip-path="url(#SVGID_2_)" fill="#FFFFFF" d="M45.125,79.561c-1.213,1.497-3.054,2.246-5.524,2.246
		c-2.47,0-4.311-0.749-5.524-2.246s-1.819-3.3-1.819-5.407c0-2.072,0.606-3.868,1.819-5.388c1.213-1.519,3.054-2.279,5.524-2.279
		c2.47,0,4.311,0.76,5.524,2.279c1.213,1.52,1.819,3.316,1.819,5.388C46.945,76.261,46.338,78.064,45.125,79.561 M42.12,77.484
		c0.589-0.78,0.883-1.891,0.883-3.33c0-1.441-0.294-2.548-0.883-3.324c-0.589-0.777-1.433-1.165-2.531-1.165
		c-1.099,0-1.945,0.388-2.538,1.165c-0.593,0.776-0.89,1.882-0.89,3.324c0,1.439,0.297,2.55,0.89,3.33
		c0.593,0.781,1.439,1.172,2.538,1.172C40.687,78.656,41.531,78.265,42.12,77.484"/>
	<path clip-path="url(#SVGID_2_)" fill="#FFFFFF" d="M53.378,66.949v8.661c0,0.818,0.096,1.434,0.289,1.846
		c0.341,0.73,1.009,1.095,2.006,1.095c1.277,0,2.152-0.519,2.624-1.556c0.245-0.563,0.368-1.305,0.368-2.229v-7.817h3.81v14.37
		h-3.652v-2.03c-0.035,0.044-0.123,0.176-0.263,0.396c-0.14,0.22-0.307,0.413-0.499,0.58c-0.588,0.527-1.155,0.888-1.703,1.081
		s-1.19,0.292-1.926,0.292c-2.121,0-3.55-0.767-4.286-2.296c-0.412-0.844-0.618-2.087-0.618-3.731v-8.661H53.378z"/>
	<path clip-path="url(#SVGID_2_)" fill="#FFFFFF" d="M78.211,68.491c1.172,1.24,1.758,3.058,1.758,5.459
		c0,2.531-0.573,4.46-1.718,5.787c-1.146,1.327-2.621,1.99-4.425,1.99c-1.15,0-2.106-0.285-2.867-0.856
		c-0.415-0.316-0.822-0.778-1.22-1.384v7.488h-3.718V66.949h3.599v2.122c0.407-0.623,0.84-1.115,1.3-1.477
		c0.841-0.64,1.84-0.962,2.999-0.962C75.608,66.632,77.04,67.253,78.211,68.491 M75.328,71.194c-0.51-0.853-1.338-1.279-2.483-1.279
		c-1.377,0-2.323,0.646-2.838,1.938c-0.266,0.686-0.399,1.556-0.399,2.61c0,1.67,0.448,2.844,1.344,3.52
		c0.533,0.396,1.163,0.594,1.892,0.594c1.056,0,1.862-0.403,2.418-1.213c0.554-0.809,0.832-1.885,0.832-3.23
		C76.094,73.026,75.838,72.046,75.328,71.194"/>
	<path clip-path="url(#SVGID_2_)" fill="#FFFFFF" d="M91.984,67.24c1.002,0.449,1.83,1.158,2.483,2.126
		c0.589,0.853,0.97,1.845,1.145,2.971c0.101,0.66,0.143,1.611,0.124,2.852H85.27c0.058,1.444,0.559,2.453,1.503,3.033
		c0.573,0.36,1.264,0.54,2.071,0.54c0.856,0,1.552-0.22,2.086-0.659c0.292-0.237,0.55-0.566,0.774-0.988h3.836
		c-0.101,0.853-0.566,1.718-1.393,2.597c-1.287,1.397-3.09,2.097-5.407,2.097c-1.912,0-3.599-0.59-5.061-1.769
		s-2.193-3.097-2.193-5.753c0-2.489,0.66-4.399,1.98-5.727c1.319-1.328,3.032-1.992,5.138-1.992
		C89.855,66.567,90.982,66.791,91.984,67.24 M86.363,70.486c-0.531,0.547-0.865,1.288-1.001,2.224h6.473
		c-0.068-0.997-0.402-1.753-1.001-2.271c-0.599-0.515-1.342-0.774-2.228-0.774C87.641,69.665,86.894,69.938,86.363,70.486"/>
	<path clip-path="url(#SVGID_2_)" fill="#FFFFFF" d="M407.543,81.338h-3.806c-2.159,0-3.671-1.106-4.534-3.32
		c-0.675,1.053-1.971,1.62-3.833,1.62c-3.24,0-5.318-2.808-5.318-6.532c0-4.022,2.025-6.613,5.587-6.613
		c0-0.028,2.403-0.028,7.207-0.028v8.503c0,1.781,0.918,2.753,2.753,2.753h1.944V81.338z M396.422,63.955h-3.348v-3.131h3.348
		V63.955z M398.959,72.809v-3.563h-2.483c-1.538,0-2.672,1.7-2.672,3.805c0,1.89,1.079,3.455,2.591,3.455
		C397.988,76.506,398.959,75.022,398.959,72.809 M401.497,63.955h-3.347v-3.131h3.347V63.955z"/>
	<path clip-path="url(#SVGID_2_)" fill="#FFFFFF" d="M421.853,81.338h-15.196v-3.617h4.265c-0.351-0.945-0.54-1.809-0.54-2.591
		c0-1.755,0.567-3.267,1.7-4.508c1.162-1.242,2.619-1.863,4.401-1.863c2.294,0,4.236,1.296,5.183,3.429l-3.105,1.431
		c-0.352-1.053-1.053-1.594-2.158-1.594c-0.757,0-1.351,0.298-1.755,0.919c-0.379,0.513-0.566,1.188-0.566,1.997
		c0,1.431,0.512,2.376,1.51,2.78h6.263V81.338z"/>
	<path clip-path="url(#SVGID_2_)" fill="#FFFFFF" d="M440.051,81.338h-3.563c-0.432,2.969-2.484,4.454-6.155,4.454h-0.405v-3.023
		h0.324c1.458,0,2.322-0.54,2.618-1.593c-0.296,0.107-1.052,0.162-2.321,0.162c-3.535,0-6.127-2.564-6.127-6.154
		c0-3.646,2.537-6.101,6.127-6.101c3.455,0,5.992,2.592,5.992,6.182v2.456h3.51V81.338z M432.764,77.721v-2.618
		c0-1.593-0.945-2.618-2.321-2.618c-1.432,0-2.188,1.106-2.188,2.537c0,1.539,0.917,2.699,2.321,2.699H432.764z"/>
	<path clip-path="url(#SVGID_2_)" fill="#FFFFFF" d="M457.734,81.338h-4.317c-1.108,1.539-2.809,2.323-5.048,2.323
		c-2.296,0-3.995-0.784-5.13-2.323h-4.13v-3.617h3.024c0-3.887,2.211-6.315,6.127-6.315c3.941,0,6.316,2.348,6.316,6.315h3.157
		V81.338z M450.824,77.64c0-2.132-0.81-3.212-2.401-3.212h-0.271c-1.377,0-2.295,1.296-2.295,3.05c0,1.809,0.918,3.104,2.512,3.104
		C449.906,80.583,450.824,79.449,450.824,77.64"/>
	<path clip-path="url(#SVGID_2_)" fill="#FFFFFF" d="M479.388,81.338h-22.565v-3.617h15.332c-0.081-1.431-0.595-2.646-1.539-3.671
		c-1.053-1.161-2.456-1.755-4.157-1.755c-1.62,0-3.455,0.837-4.507,1.944c-0.378-0.514-0.999-1.351-1.891-2.564
		c1.836-1.917,4.05-2.861,6.668-2.861c1.593,0,2.995,0.297,4.211,0.863c2.889,1.377,4.589,4.049,5.048,8.044h3.4V81.338z
		 M468.699,85.819h-3.35v-3.131h3.35V85.819z"/>
	<path clip-path="url(#SVGID_2_)" fill="#FFFFFF" d="M494.158,77.505c0,3.617-2.43,6.156-6.207,6.156
		c-2.296,0-4.024-0.784-5.13-2.323h-4.857v-3.617h3.752c0-3.859,2.211-6.315,6.099-6.315
		C491.703,71.406,494.158,73.807,494.158,77.505 M490.406,77.64c0-2.132-0.811-3.212-2.401-3.212h-0.271
		c-1.376,0-2.32,1.269-2.32,3.05c0,1.836,0.918,3.104,2.538,3.104C489.435,80.583,490.406,79.395,490.406,77.64"/>
</g>
<g>
	<defs>
		<rect id="SVGID_3_" x="100.716" y="48.735" width="283.703" height="44.329"/>
	</defs>
	<clipPath id="SVGID_4_">
		<use xlink:href="#SVGID_3_"  overflow="visible"/>
	</clipPath>
	<path clip-path="url(#SVGID_4_)" fill="#EE3436" d="M122.883,48.736c-12.242,0-22.165,9.923-22.165,22.164
		c0,12.24,9.923,22.164,22.165,22.164c12.239,0,22.164-9.924,22.164-22.164C145.047,58.659,135.122,48.736,122.883,48.736"/>
	<path clip-path="url(#SVGID_4_)" fill="#FFFFFF" d="M130.866,62.916c-1.006-1.018-2.206-1.835-3.567-2.426
		c-1.36-0.591-2.845-0.891-4.416-0.891c-1.569,0-3.055,0.3-4.415,0.891c-1.365,0.592-2.563,1.409-3.568,2.426
		c-1.004,1.017-1.814,2.224-2.406,3.59c-0.592,1.36-0.891,2.847-0.891,4.416c0,1.566,0.299,3.053,0.89,4.415
		c0.592,1.364,1.402,2.563,2.407,3.568c1.002,1.003,2.203,1.813,3.568,2.405c1.362,0.591,2.846,0.891,4.414,0.89
		c1.57,0,3.055-0.299,4.417-0.89c1.362-0.593,2.563-1.402,3.568-2.405c1.004-1.006,1.812-2.205,2.405-3.569
		c0.592-1.362,0.891-2.846,0.891-4.415c0-1.568-0.299-3.054-0.891-4.415C132.679,65.143,131.869,63.933,130.866,62.916
		 M129.122,73.542c-0.362,0.824-0.852,1.549-1.457,2.155c-0.605,0.608-1.328,1.1-2.149,1.46c-0.824,0.362-1.709,0.546-2.633,0.546
		c-0.924,0.002-1.81-0.184-2.634-0.545c-0.82-0.361-1.544-0.853-2.15-1.46c-0.606-0.608-1.095-1.335-1.455-2.156
		c-0.361-0.826-0.543-1.714-0.543-2.642c0-0.928,0.182-1.817,0.543-2.641c0.36-0.823,0.849-1.547,1.455-2.155
		c0.606-0.609,1.33-1.101,2.15-1.46c0.824-0.365,1.709-0.548,2.634-0.548c0.925,0.001,1.811,0.184,2.633,0.548
		c0.821,0.359,1.544,0.852,2.149,1.46c0.605,0.605,1.095,1.331,1.456,2.155C129.843,69.91,129.845,71.887,129.122,73.542"/>
	<path clip-path="url(#SVGID_4_)" fill="#EE3436" d="M162.778,48.736c-12.241,0-22.165,9.923-22.165,22.164
		c0,12.24,9.924,22.164,22.165,22.164c12.24,0,22.164-9.924,22.164-22.164C184.942,58.659,175.018,48.736,162.778,48.736"/>
	<path clip-path="url(#SVGID_4_)" fill="#FFFFFF" d="M170.761,62.916c-1.005-1.018-2.206-1.835-3.567-2.426
		c-1.36-0.591-2.845-0.891-4.415-0.891c-1.57,0-3.055,0.3-4.416,0.891c-1.364,0.592-2.563,1.409-3.568,2.426
		c-1.004,1.017-1.814,2.224-2.405,3.59c-0.592,1.36-0.892,2.847-0.892,4.416c0,1.566,0.3,3.053,0.891,4.415
		c0.591,1.364,1.401,2.563,2.406,3.568c1.003,1.003,2.204,1.813,3.568,2.405c1.362,0.591,2.847,0.891,4.415,0.89
		c1.569,0,3.054-0.299,4.416-0.89c1.362-0.593,2.563-1.402,3.568-2.405c1.004-1.006,1.813-2.205,2.406-3.569
		c0.592-1.362,0.891-2.846,0.891-4.415c0-1.568-0.299-3.054-0.891-4.415C172.574,65.143,171.765,63.933,170.761,62.916
		 M169.017,73.542c-0.361,0.824-0.852,1.549-1.456,2.155c-0.605,0.608-1.329,1.1-2.149,1.46c-0.824,0.362-1.71,0.546-2.633,0.546
		c-0.925,0.002-1.81-0.184-2.634-0.545c-0.821-0.361-1.545-0.853-2.15-1.46c-0.606-0.608-1.096-1.335-1.456-2.156
		c-0.361-0.826-0.543-1.714-0.543-2.642c0-0.928,0.182-1.817,0.543-2.641c0.36-0.823,0.85-1.547,1.456-2.155
		c0.605-0.609,1.329-1.101,2.15-1.46c0.823-0.365,1.708-0.548,2.634-0.548c0.925,0.001,1.81,0.184,2.633,0.548
		c0.82,0.359,1.544,0.852,2.149,1.46c0.604,0.605,1.095,1.331,1.455,2.155C169.739,69.91,169.74,71.887,169.017,73.542"/>
	<path clip-path="url(#SVGID_4_)" fill="#EE3436" d="M322.359,48.736c-12.24,0-22.164,9.923-22.164,22.164
		c0,12.24,9.924,22.164,22.164,22.164c12.238,0,22.163-9.924,22.163-22.164C344.522,58.659,334.598,48.736,322.359,48.736"/>
	<path clip-path="url(#SVGID_4_)" fill="#FFFFFF" d="M330.342,62.916c-1.005-1.018-2.206-1.835-3.566-2.426
		c-1.36-0.591-2.846-0.891-4.415-0.891c-1.571,0-3.056,0.3-4.417,0.891c-1.364,0.592-2.563,1.409-3.567,2.426
		c-1.004,1.017-1.813,2.224-2.406,3.59c-0.591,1.36-0.891,2.847-0.891,4.416c0,1.566,0.3,3.053,0.89,4.415
		c0.594,1.364,1.402,2.563,2.407,3.568c1.003,1.003,2.203,1.813,3.567,2.405c1.362,0.591,2.847,0.891,4.416,0.89
		c1.568,0,3.054-0.299,4.416-0.89c1.362-0.593,2.563-1.402,3.567-2.405c1.003-1.006,1.813-2.205,2.406-3.569
		c0.591-1.362,0.89-2.846,0.89-4.415c0-1.568-0.299-3.054-0.89-4.415C332.156,65.143,331.345,63.933,330.342,62.916 M328.598,73.542
		c-0.359,0.824-0.852,1.549-1.455,2.155c-0.606,0.608-1.328,1.1-2.148,1.46c-0.826,0.362-1.709,0.546-2.634,0.546
		c-0.924,0.002-1.811-0.184-2.634-0.545c-0.82-0.361-1.547-0.853-2.149-1.46c-0.607-0.608-1.096-1.335-1.458-2.156
		c-0.36-0.826-0.542-1.714-0.542-2.642c0-0.928,0.182-1.817,0.542-2.641c0.362-0.823,0.851-1.547,1.458-2.155
		c0.603-0.609,1.329-1.101,2.149-1.46c0.821-0.365,1.709-0.548,2.634-0.548c0.926,0.001,1.81,0.184,2.634,0.548
		c0.82,0.359,1.542,0.852,2.148,1.46c0.604,0.605,1.096,1.331,1.454,2.155C329.32,69.91,329.321,71.887,328.598,73.542"/>
	<path clip-path="url(#SVGID_4_)" fill="#EE3436" d="M362.254,48.736c-12.24,0-22.164,9.923-22.164,22.164
		c0,12.24,9.924,22.164,22.164,22.164c12.239,0,22.163-9.924,22.163-22.164C384.417,58.659,374.493,48.736,362.254,48.736"/>
	<path clip-path="url(#SVGID_4_)" fill="#FFFFFF" d="M370.237,62.916c-1.006-1.018-2.206-1.835-3.567-2.426
		c-1.359-0.591-2.846-0.891-4.415-0.891c-1.571,0-3.056,0.3-4.416,0.891c-1.365,0.592-2.563,1.409-3.568,2.426
		c-1.003,1.017-1.813,2.224-2.405,3.59c-0.592,1.36-0.893,2.847-0.893,4.416c0,1.566,0.301,3.053,0.892,4.415
		c0.593,1.364,1.4,2.563,2.406,3.568c1.003,1.003,2.203,1.813,3.568,2.405c1.362,0.591,2.847,0.891,4.415,0.89
		c1.568,0,3.053-0.299,4.416-0.89c1.362-0.593,2.563-1.402,3.567-2.405c1.003-1.006,1.813-2.205,2.405-3.569
		c0.592-1.362,0.891-2.846,0.891-4.415c0-1.568-0.299-3.054-0.891-4.415C372.051,65.143,371.239,63.933,370.237,62.916
		 M368.494,73.542c-0.361,0.824-0.854,1.549-1.457,2.155c-0.606,0.608-1.328,1.1-2.149,1.46c-0.825,0.362-1.709,0.546-2.633,0.546
		c-0.924,0.002-1.811-0.184-2.634-0.545c-0.82-0.361-1.547-0.853-2.15-1.46c-0.606-0.608-1.095-1.335-1.456-2.156
		c-0.361-0.826-0.543-1.714-0.543-2.642c0-0.928,0.182-1.817,0.543-2.641c0.361-0.823,0.85-1.547,1.456-2.155
		c0.604-0.609,1.33-1.101,2.15-1.46c0.822-0.365,1.709-0.548,2.634-0.548c0.925,0.001,1.811,0.184,2.633,0.548
		c0.821,0.359,1.543,0.852,2.149,1.46c0.603,0.605,1.096,1.331,1.455,2.155C369.215,69.91,369.217,71.887,368.494,73.542"/>
	<path clip-path="url(#SVGID_4_)" fill="#EE3436" d="M202.673,48.736c-12.241,0-22.164,9.923-22.164,22.164
		c0,12.24,9.923,22.164,22.164,22.164c12.24,0,22.164-9.924,22.164-22.164C224.837,58.659,214.913,48.736,202.673,48.736"/>
	<path clip-path="url(#SVGID_4_)" fill="#FFFFFF" d="M207.486,66.027c0.606,0.606,1.096,1.33,1.455,2.15
		c0.205,0.466,0.345,0.953,0.434,1.454h4.55c-0.114-1.137-0.391-2.222-0.832-3.235c-0.593-1.363-1.402-2.564-2.407-3.569
		c-1.004-1.003-2.204-1.814-3.567-2.405c-1.362-0.593-2.847-0.892-4.416-0.892c-1.57,0-3.055,0.293-4.417,0.872
		c-1.363,0.575-2.57,1.379-3.588,2.384c-1.018,1.005-1.828,2.205-2.405,3.565c-0.577,1.363-0.87,2.861-0.87,4.46v10.714h4.497
		v-2.181V70.5h0.015c0.037-0.812,0.209-1.592,0.529-2.323c0.362-0.821,0.851-1.544,1.456-2.15c0.605-0.604,1.328-1.095,2.149-1.455
		c1.649-0.723,3.619-0.723,5.267,0C206.157,64.932,206.881,65.423,207.486,66.027"/>
	<path clip-path="url(#SVGID_4_)" fill="#EE3436" d="M242.568,48.736c-12.24,0-22.164,9.924-22.164,22.164
		s9.924,22.164,22.164,22.164s22.165-9.924,22.165-22.164S254.808,48.736,242.568,48.736"/>
	<path clip-path="url(#SVGID_4_)" fill="#FFFFFF" d="M253.02,66.732c-0.537-1.389-1.298-2.632-2.262-3.693
		c-0.961-1.058-2.148-1.916-3.523-2.549c-1.374-0.631-2.952-0.953-4.685-0.953c-1.57,0-3.055,0.3-4.416,0.892
		c-1.364,0.593-2.568,1.402-3.576,2.405c-1.01,1.006-1.818,2.205-2.405,3.569c-0.586,1.36-0.883,2.845-0.883,4.415
		c0,1.569,0.297,3.055,0.882,4.417c0.588,1.363,1.397,2.563,2.406,3.566c1.008,1.005,2.212,1.813,3.576,2.406
		c1.361,0.592,2.846,0.891,4.416,0.891c1.156,0,2.324-0.16,3.47-0.479c1.142-0.316,2.223-0.825,3.21-1.512
		c0.989-0.686,1.881-1.592,2.652-2.693c0.729-1.043,1.332-2.313,1.794-3.78h-4.959c-0.492,1.184-1.265,2.143-2.298,2.855
		c-1.07,0.736-2.373,1.111-3.869,1.111c-0.896,0-1.758-0.169-2.567-0.5c-0.805-0.332-1.523-0.792-2.129-1.37
		c-0.605-0.577-1.103-1.265-1.477-2.041c-0.376-0.782-0.582-1.633-0.61-2.526l-0.006-0.207h18.105
		C253.817,69.484,253.533,68.065,253.02,66.732 M236.582,67.092l0.185-0.303c1.102-1.797,3.059-2.752,5.82-2.839h0.007
		c2.706,0.03,4.637,0.986,5.741,2.841l0.179,0.301H236.582z"/>
	<path clip-path="url(#SVGID_4_)" fill="#EE3436" d="M282.464,48.736c2.366,0,4.646,0.375,6.782,1.062V62.2l-0.334-0.309
		c-0.352-0.326-0.78-0.635-1.272-0.924c-0.493-0.288-1.029-0.544-1.598-0.766c-0.562-0.22-1.156-0.402-1.766-0.54
		c-0.601-0.137-1.212-0.207-1.813-0.207c-1.567,0-3.054,0.301-4.415,0.891c-1.363,0.593-2.563,1.403-3.567,2.406
		c-1.004,1.005-1.815,2.206-2.408,3.568c-0.588,1.362-0.889,2.847-0.889,4.416c0,1.568,0.301,3.054,0.889,4.415
		c0.594,1.363,1.404,2.565,2.408,3.567c1.004,1.006,2.204,1.815,3.567,2.406c1.36,0.592,2.848,0.892,4.415,0.892
		c1.568,0,3.056-0.293,4.418-0.87c1.362-0.579,2.57-1.381,3.588-2.386c1.017-1.002,1.827-2.202,2.403-3.565
		c0.578-1.361,0.871-2.862,0.871-4.459V51.822c6.516,3.861,10.883,10.957,10.883,19.078c0,12.24-9.923,22.164-22.163,22.164
		S260.3,83.14,260.3,70.9S270.224,48.736,282.464,48.736"/>
	<path clip-path="url(#SVGID_4_)" fill="#EE3436" d="M287.247,75.518c-0.606,0.605-1.329,1.096-2.149,1.455
		c-0.824,0.361-1.708,0.545-2.634,0.545c-0.925,0-1.811-0.184-2.633-0.545c-0.821-0.359-1.545-0.85-2.15-1.455
		c-0.605-0.606-1.094-1.329-1.454-2.15c-0.362-0.825-0.545-1.71-0.545-2.633c0-0.924,0.183-1.809,0.545-2.635
		c0.36-0.82,0.849-1.544,1.454-2.148c0.604-0.606,1.329-1.096,2.15-1.455c1.647-0.723,3.617-0.723,5.267,0
		c0.822,0.359,1.546,0.849,2.149,1.455c0.605,0.605,1.096,1.329,1.455,2.148c0.361,0.823,0.545,1.71,0.545,2.635
		s-0.184,1.811-0.545,2.633C288.343,74.188,287.853,74.912,287.247,75.518"/>
	<path clip-path="url(#SVGID_4_)" fill="#FFFFFF" d="M293.743,70.735V51.822c-1.404-0.833-2.912-1.516-4.496-2.024v12.403
		l-0.335-0.31c-0.352-0.326-0.78-0.636-1.273-0.923c-0.493-0.288-1.029-0.546-1.596-0.767c-0.565-0.22-1.157-0.402-1.767-0.54
		c-0.601-0.137-1.212-0.207-1.813-0.207c-1.568,0-3.054,0.301-4.414,0.891c-1.365,0.593-2.564,1.403-3.57,2.407
		c-1.003,1.004-1.813,2.205-2.404,3.567s-0.89,2.847-0.89,4.416c0,1.568,0.299,3.054,0.89,4.415
		c0.593,1.363,1.401,2.563,2.404,3.567c1.006,1.005,2.205,1.815,3.57,2.406c1.36,0.59,2.846,0.892,4.414,0.892
		s3.055-0.293,4.418-0.87c1.364-0.58,2.57-1.383,3.588-2.386c1.017-1.003,1.827-2.202,2.404-3.565
		C293.451,73.832,293.743,72.332,293.743,70.735 M289.247,70.735c0,0.924-0.185,1.811-0.545,2.633
		c-0.359,0.82-0.851,1.544-1.455,2.15c-0.606,0.605-1.329,1.095-2.149,1.455c-0.823,0.361-1.708,0.545-2.634,0.545
		c-0.925,0-1.811-0.184-2.633-0.545c-0.821-0.36-1.545-0.85-2.149-1.455c-0.606-0.606-1.095-1.329-1.455-2.15
		c-0.362-0.825-0.545-1.71-0.545-2.633c0-0.924,0.183-1.809,0.545-2.633c0.36-0.822,0.849-1.546,1.455-2.15
		c0.604-0.606,1.327-1.094,2.149-1.455c1.647-0.723,3.617-0.723,5.267,0c0.822,0.361,1.546,0.849,2.149,1.455
		c0.604,0.605,1.096,1.329,1.455,2.15C289.063,68.923,289.247,69.81,289.247,70.735"/>
</g>
</svg>
