<?xml version="1.0" encoding="utf-8"?>
<!-- Generator: Adobe Illustrator 15.0.2, SVG Export Plug-In . SVG Version: 6.00 Build 0)  -->
<!DOCTYPE svg PUBLIC "-//W3C//DTD SVG 1.1//EN" "http://www.w3.org/Graphics/SVG/1.1/DTD/svg11.dtd">
<svg version="1.1" id="Calque_1" xmlns="http://www.w3.org/2000/svg" xmlns:xlink="http://www.w3.org/1999/xlink" x="0px" y="0px"
	 width="201px" height="94px" viewBox="0 0 201 94" enable-background="new 0 0 201 94" xml:space="preserve">
<g>
	<path fill="#ED1C24" d="M128.143,89.781c-9.172,0-16.602-7.432-16.602-16.596V0.936h72.234c9.174,0,16.605,7.438,16.605,16.608
		v72.237H128.143z"/>
	<path fill="#FFFFFF" d="M163.4,52.822c0,0.509-0.582,0.924-1.297,0.924c-0.72,0-1.297-0.415-1.297-0.924
		c0-0.51,0.577-0.92,1.297-0.92C162.818,51.902,163.4,52.313,163.4,52.822"/>
	<path fill="#FFFFFF" d="M150.409,52.822c0,0.509-0.578,0.924-1.298,0.924c-0.719,0-1.299-0.415-1.299-0.924
		c0-0.51,0.58-0.92,1.299-0.92C149.831,51.902,150.409,52.313,150.409,52.822"/>
	<polygon fill="#FFFFFF" points="125.352,48.771 122.646,48.771 122.646,47.693 130.257,47.693 130.257,48.771 127.553,48.771 
		127.553,67.576 125.352,67.576 	"/>
	<rect x="148.014" y="54.982" fill="#FFFFFF" width="2.113" height="12.594"/>
	<path fill="#FFFFFF" d="M154.245,63.257v2.447c0,0.797,0.381,1.103,1.349,1.103c0.918,0,1.334-0.332,1.334-1.103V63.59
		c0-0.943-0.213-1.199-1.307-1.636l-2.098-0.867c-1.166-0.459-1.4-0.788-1.4-1.914V56.9c0-1.508,0.973-2.123,3.439-2.123
		c2.481,0,3.472,0.615,3.472,2.123v2.166h-2.106v-2.221c0-0.811-0.416-1.121-1.381-1.121c-0.921,0-1.302,0.334-1.302,1.121v1.911
		c0,0.845,0.101,0.981,1.065,1.358l2.401,0.994c0.998,0.388,1.321,0.844,1.321,1.815v2.698c0,1.539-0.989,2.123-3.473,2.123
		c-2.445,0-3.438-0.584-3.438-2.094v-2.397h2.123V63.257z"/>
	<rect x="161.003" y="54.982" fill="#FFFFFF" width="2.117" height="12.594"/>
	<path fill="#FFFFFF" d="M144.064,54.85c-1.119,0-2.193,0.693-2.912,1.319v-1.187h-2.127v12.594h2.127V56.404
		c0.392-0.153,0.848-0.227,1.298-0.162c1.018,0.134,1.249,0.604,1.249,1.197v10.137h2.115V56.951
		C145.814,55.928,145.516,54.85,144.064,54.85"/>
	<path fill="#FFFFFF" d="M178.988,54.85c-1.133,0-2.198,0.693-2.928,1.319v-1.187h-2.111v12.594h2.111V56.404
		c0.396-0.153,0.857-0.227,1.308-0.162c1.009,0.134,1.254,0.604,1.254,1.197v10.137h2.108V56.951
		C180.73,55.928,180.438,54.85,178.988,54.85"/>
	<path fill="#FFFFFF" d="M131.68,67.71c1.137,0,2.312-0.702,3.034-1.321v1.188h2.125V54.982h-2.125v11.175
		c-0.396,0.153-0.851,0.221-1.301,0.165c-1.013-0.141-1.362-0.607-1.362-1.201V54.982h-2.117v10.625
		C129.934,66.628,130.232,67.71,131.68,67.71"/>
	<path fill="#FFFFFF" d="M189.469,66.699v-9.918c0-1.455-0.896-2.02-3.248-2.02c-2.457,0-3.533,0.594-3.533,1.944v2.713h2.029
		v-2.638c0-0.766,0.324-1.049,1.225-1.049c1.049,0,1.402,0.283,1.402,1.074v2.668v0.162c-0.422,0.196-0.531,0.25-1.326,0.557
		l-1.138,0.435c-0.442,0.155-0.746,0.254-0.981,0.356c-0.275,0.103-0.506,0.234-0.709,0.354c-0.182,0.132-0.338,0.31-0.438,0.521
		c-0.11,0.289-0.142,0.434-0.146,0.943h-0.008v2.846c0,1.016,0.519,2.1,1.969,2.1c1.109,0,2.054-0.678,2.779-1.285l0.104,1.113
		h2.146C189.514,67.287,189.488,67.109,189.469,66.699 M187.344,66.21c-0.384,0.144-0.83,0.209-1.267,0.146
		c-1.015-0.133-1.358-0.596-1.358-1.201v-2.432c0-0.894,0.124-1.052,1.708-1.66c0.407-0.153,0.661-0.258,0.765-0.279l0.152-0.079
		V66.21L187.344,66.21z"/>
	<path fill="#FFFFFF" d="M171.85,66.699v-9.918c0-1.455-0.886-2.02-3.244-2.02c-2.455,0-3.527,0.594-3.527,1.944v2.713h2.021v-2.638
		c0-0.766,0.328-1.049,1.229-1.049c1.05,0,1.405,0.283,1.405,1.074v2.668v0.162c-0.438,0.196-0.537,0.25-1.325,0.557l-1.149,0.435
		c-0.433,0.155-0.74,0.254-0.969,0.356c-0.285,0.103-0.509,0.234-0.715,0.354c-0.182,0.132-0.335,0.31-0.438,0.521
		c-0.111,0.289-0.147,0.434-0.147,0.943h-0.007v2.846c0,1.016,0.516,2.1,1.961,2.1c1.117,0,2.064-0.678,2.789-1.285l0.102,1.113
		h2.141C171.908,67.287,171.876,67.109,171.85,66.699 M169.734,66.21c-0.387,0.144-0.836,0.209-1.271,0.146
		c-1.017-0.133-1.36-0.596-1.36-1.201v-2.432c0-0.894,0.127-1.052,1.715-1.66c0.41-0.153,0.658-0.258,0.762-0.279l0.154-0.079V66.21
		z"/>
	<polygon fill="#FFFFFF" points="129.964,38.485 127.451,38.485 126.443,38.485 125.211,38.485 125.211,19.937 122.646,19.937 
		122.646,39.805 126.443,39.805 127.451,39.805 132.503,39.805 132.503,27.248 129.964,27.248 	"/>
	<polygon fill="#FFFFFF" points="144.064,38.485 141.094,38.485 140.08,38.485 138.093,38.485 138.093,19.937 135.549,19.937 
		135.549,39.805 140.08,39.805 141.094,39.805 146.611,39.805 146.611,27.269 144.064,27.269 	"/>
	<path fill="#FFFFFF" d="M166.301,38.485h-1.637h-1.137h-2.02V27.269h-2.552v11.217h-1.263h-1.393h-1.418V27.04h-2.559v12.897
		c-0.271,1.047-1.67,1.685-4.998,2.064c0.146,0,0.393,0.023,0.746,0.074c0.357,0.044,0.634,0.07,0.836,0.07
		c2.455,0,3.794-0.22,4.699-0.709c0.897-0.49,1.267-1.07,1.568-1.633h1.124h1.394h5.832h1.137h4.168V27.248h-2.531v11.237H166.301z"
		/>
	<path fill="#FFFFFF" d="M155.008,25.123c0,0.412-0.6,0.74-1.341,0.74c-0.745,0-1.341-0.328-1.341-0.74
		c0-0.408,0.596-0.733,1.341-0.733C154.408,24.39,155.008,24.715,155.008,25.123"/>
	<path fill="#FFFFFF" d="M132.543,25.164c0,0.407-0.598,0.734-1.346,0.734c-0.74,0-1.33-0.327-1.33-0.734
		c0-0.408,0.59-0.732,1.33-0.732C131.945,24.432,132.543,24.756,132.543,25.164"/>
	<path fill="#FFFFFF" d="M168.898,25.123c0,0.412-0.6,0.74-1.338,0.74c-0.75,0-1.347-0.328-1.347-0.74
		c0-0.408,0.597-0.733,1.347-0.733C168.3,24.39,168.898,24.715,168.898,25.123"/>
	<path fill="#FFD12C" d="M189.871,25.402c0,0.575-0.758,1.04-1.689,1.04c-0.936,0-1.691-0.465-1.691-1.04
		c0-0.565,0.757-1.029,1.691-1.029C189.113,24.373,189.871,24.837,189.871,25.402"/>
	<path fill="#FFD12C" d="M186.045,25.402c0,0.575-0.753,1.04-1.695,1.04c-0.928,0-1.689-0.465-1.689-1.04
		c0-0.565,0.763-1.029,1.689-1.029C185.292,24.373,186.045,24.837,186.045,25.402"/>
	<path fill="#FFFFFF" d="M163.324,41.479c0,0.407-0.602,0.733-1.338,0.733c-0.748,0-1.342-0.326-1.342-0.733
		c0-0.41,0.594-0.74,1.342-0.74C162.723,40.738,163.324,41.068,163.324,41.479"/>
	<path fill="#FFFFFF" d="M160.288,41.479c0,0.407-0.599,0.733-1.334,0.733c-0.747,0-1.347-0.326-1.347-0.733
		c0-0.41,0.6-0.74,1.347-0.74C159.689,40.738,160.288,41.068,160.288,41.479"/>
	<path fill="#FFFFFF" d="M146.396,41.479c0,0.407-0.604,0.733-1.342,0.733c-0.744,0-1.341-0.326-1.341-0.733
		c0-0.41,0.597-0.74,1.341-0.74C145.793,40.738,146.396,41.068,146.396,41.479"/>
	<path fill="#FFFFFF" d="M143.363,41.479c0,0.407-0.6,0.733-1.342,0.733s-1.34-0.326-1.34-0.733c0-0.41,0.598-0.74,1.34-0.74
		C142.766,40.738,143.363,41.068,143.363,41.479"/>
	<path fill="#FFFFFF" d="M186.939,27.099v11.387h-5.387V27.269h-5.297c-1.219,0-2.289,0.247-3.211,0.736
		c-0.915,0.492-1.365,1.04-1.365,1.647v8.192c0,1.304,1.74,1.96,5.242,1.96h2.102l-0.02,0.269c0,0.829-1.637,1.476-4.928,1.929
		c0.193,0.048,0.475,0.081,0.839,0.111c0.356,0.021,0.644,0.033,0.823,0.033c2.031,0,3.053-0.102,4.013-0.569
		c0.966-0.476,1.304-0.869,1.802-1.772h7.721V27.099H186.939z M179.005,39.199c-1.784,0-4.791-0.173-4.791-1.009v-9.398
		c0-0.837,3.007-1.01,4.791-1.01V39.199z"/>
	<path fill="#FFFFFF" d="M20.402,89.443h-0.159c-1.856,0-3.229-0.455-4.123-1.35c-0.708,3.092-3.958,5.148-7.688,5.148
		c-4.579,0-8.195-3.361-8.195-7.805v-2.746h3.206v2.451c0,3.064,1.807,5.125,5.058,5.125c2.472,0,4.827-1.555,4.827-3.686
		c0-1.212-1.029-2.016-2.129-2.016c-0.182,0-0.364,0.023-0.549,0.07v-2.795c0-0.021,0.458-0.021,1.397-0.021
		c2.313,0,4.028,1.051,5.124,3.158c0.551,1.054,1.354,1.398,2.729,1.398h0.502V89.443z"/>
	<path fill="#FFFFFF" d="M26.764,85.029c0,1.209-0.342,2.218-1.004,3.02c-0.758,0.939-1.809,1.395-3.161,1.395h-3.021V86.38h2.357
		c1.078,0,1.625-0.758,1.625-2.246v-9.429h3.203L26.764,85.029L26.764,85.029z"/>
	<path fill="#FFFFFF" d="M35.581,73.247c0.021,0.138,0.042,0.272,0.042,0.392c0,0.891-0.594,1.555-1.737,1.555
		c-0.896,0-1.559-0.594-1.559-1.694c0-0.962,0.595-1.533,1.765-1.533C34.891,71.965,35.398,72.4,35.581,73.247 M33.977,72.674
		c-0.507,0-0.754,0.299-0.754,0.758c0,0.707,0.247,1.053,0.754,1.053c0.479,0,0.754-0.322,0.754-0.78
		C34.73,73.178,34.456,72.674,33.977,72.674"/>
	<path fill="#FFFFFF" d="M39.424,88.988c0,2.813-1.74,4.232-5.243,4.232h-0.316v-2.563h0.205c1.28,0,2.543-0.895,2.543-2.129
		c-0.438,0.709-1.193,1.051-2.268,1.051c-2.954,0-5.152-2.24-5.152-5.307c0-3.137,2.152-5.244,5.152-5.244
		c2.949,0,5.079,2.266,5.079,5.287V88.988z M36.221,84.316c0-1.396-0.802-2.381-1.947-2.381c-1.119,0-1.876,0.961-1.876,2.314
		c0,1.279,0.731,2.354,1.991,2.354C35.532,86.605,36.221,85.713,36.221,84.316"/>
	<path fill="#FFFFFF" d="M46.154,74.891h-4.097v-1.17h0.893c-0.069-0.205-0.093-0.412-0.093-0.594c0-1.029,0.733-1.833,1.716-1.833
		c0.73,0,1.239,0.364,1.535,1.077l-1.03,0.479c-0.094-0.316-0.251-0.479-0.505-0.479c-0.341,0-0.522,0.229-0.522,0.686
		c0,0.344,0.11,0.571,0.317,0.644h1.786V74.891z M53.616,85.689c0,1.121-0.368,2.015-1.122,2.727
		c-0.756,0.686-1.695,1.027-2.816,1.027h-7.6V86.38h3.411l-2.885-10.144h3.388l2.841,10.144c1.073-0.024,1.622-0.805,1.622-2.338
		v-9.337h3.161V85.689z"/>
	<rect x="56.226" y="74.682" fill="#FFFFFF" width="3.202" height="14.762"/>
	<path fill="#FFFFFF" d="M90.145,89.443H74.584c-5.061,0-7.577-2.127-7.577-6.406v-3.982h3.159v3.982c0,1.35,0.433,2.287,1.28,2.768
		c0.664,0.391,1.715,0.575,3.203,0.575h7.301c1.076,0,1.626-0.735,1.626-2.198v-5.104h3.203v4.99c0,0.844-0.114,1.598-0.367,2.312
		h3.732L90.145,89.443L90.145,89.443z M76.298,79.078h-2.86v-2.656h2.86V79.078z M80.625,79.078h-2.863v-2.656h2.863V79.078z"/>
	<path fill="#FFFFFF" d="M96.577,85.029c0,1.209-0.342,2.218-1.007,3.02c-0.755,0.939-1.807,1.395-3.132,1.395h-2.727V86.38h2.039
		c1.073,0,1.621-0.758,1.621-2.246v-5.056h3.205L96.577,85.029L96.577,85.029z M96.373,77.336h-2.861v-2.631h2.861V77.336z"/>
	<path fill="#FFFFFF" d="M102.646,94h-4.124v-1.169h0.916c-0.066-0.226-0.115-0.435-0.115-0.616c0-1.029,0.734-1.834,1.761-1.834
		c0.711,0,1.237,0.366,1.535,1.078l-1.028,0.482c-0.115-0.297-0.299-0.461-0.527-0.461c-0.344,0-0.528,0.228-0.528,0.688
		c0,0.344,0.094,0.573,0.304,0.643h1.809V94H102.646z M102.393,89.443h-3.204V74.682h3.204V89.443z"/>
</g>
</svg>
