<?xml version="1.0" encoding="utf-8"?>
<!-- Generator: Adobe Illustrator 15.0.2, SVG Export Plug-In . SVG Version: 6.00 Build 0)  -->
<!DOCTYPE svg PUBLIC "-//W3C//DTD SVG 1.1//EN" "http://www.w3.org/Graphics/SVG/1.1/DTD/svg11.dtd">
<svg version="1.1" id="Calque_1" xmlns="http://www.w3.org/2000/svg" xmlns:xlink="http://www.w3.org/1999/xlink" x="0px" y="0px"
	 width="50px" height="50px" viewBox="0 0 50 50" enable-background="new 0 0 50 50" xml:space="preserve">
<g>
	<circle fill="#EF3637" cx="25" cy="25" r="25"/>
	<g>
		<path fill="none" d="M30.395,19.59c-0.682-0.686-1.498-1.242-2.424-1.646c-0.926-0.411-1.926-0.617-2.97-0.618
			c-1.043,0-2.041,0.206-2.971,0.618c-0.924,0.405-1.742,0.96-2.424,1.646c-0.684,0.686-1.236,1.502-1.642,2.431
			c-0.407,0.93-0.612,1.933-0.612,2.979c0,1.047,0.205,2.049,0.612,2.98c0.406,0.926,0.958,1.745,1.642,2.432
			c0.683,0.685,1.5,1.239,2.424,1.646c0.93,0.407,1.929,0.617,2.971,0.614c1.042,0,2.04-0.207,2.97-0.614
			c0.926-0.407,1.742-0.962,2.424-1.647c0.684-0.684,1.234-1.501,1.645-2.431c0.816-1.868,0.813-4.097-0.002-5.959
			C31.629,21.092,31.078,20.273,30.395,19.59z"/>
		<path fill="#FFFFFF" d="M34.006,15.995c-1.135-1.148-2.488-2.07-4.023-2.737c-1.533-0.667-3.209-1.004-4.981-1.004
			c-1.769,0-3.445,0.338-4.98,1.004c-1.539,0.668-2.89,1.589-4.024,2.737c-1.132,1.147-2.046,2.509-2.714,4.049
			c-0.667,1.534-1.005,3.211-1.005,4.981c0,1.766,0.337,3.444,1.004,4.98c0.667,1.538,1.582,2.891,2.715,4.024
			c1.13,1.131,2.485,2.045,4.024,2.713c1.537,0.666,3.211,1.005,4.979,1.005c1.771,0,3.447-0.339,4.982-1.005
			c1.535-0.67,2.891-1.582,4.023-2.713c1.133-1.135,2.045-2.486,2.715-4.026c0.666-1.535,1.004-3.21,1.004-4.979
			c0-1.769-0.338-3.445-1.004-4.98C36.051,18.506,35.137,17.142,34.006,15.995z M32.039,27.98c-0.41,0.93-0.961,1.747-1.645,2.431
			c-0.682,0.686-1.498,1.24-2.424,1.647c-0.93,0.407-1.928,0.614-2.97,0.614c-1.042,0.003-2.041-0.207-2.971-0.614
			c-0.924-0.407-1.742-0.962-2.424-1.646c-0.684-0.687-1.236-1.506-1.642-2.432c-0.407-0.932-0.612-1.934-0.612-2.98
			c0-1.046,0.205-2.049,0.612-2.979c0.406-0.928,0.958-1.745,1.642-2.431c0.683-0.687,1.5-1.242,2.424-1.646
			c0.93-0.412,1.928-0.618,2.971-0.618c1.044,0.001,2.044,0.207,2.97,0.618c0.926,0.405,1.742,0.961,2.424,1.646
			c0.684,0.683,1.234,1.501,1.643,2.431C32.852,23.884,32.855,26.112,32.039,27.98z"/>
	</g>
</g>
</svg>
