<?xml version="1.0" encoding="utf-8"?>
<!-- Generator: Adobe Illustrator 15.0.2, SVG Export Plug-In . SVG Version: 6.00 Build 0)  -->
<!DOCTYPE svg PUBLIC "-//W3C//DTD SVG 1.1//EN" "http://www.w3.org/Graphics/SVG/1.1/DTD/svg11.dtd">
<svg version="1.1" id="Calque_1" xmlns="http://www.w3.org/2000/svg" xmlns:xlink="http://www.w3.org/1999/xlink" x="0px" y="0px"
	 width="50px" height="50px" viewBox="0 0 50 50" enable-background="new 0 0 50 50" xml:space="preserve">
<g>
	<circle fill="#EF3637" cx="25" cy="25" r="25"/>
</g>
<g>
	<path fill="#EF3637" d="M32.56,23.568c-0.101-0.565-0.258-1.114-0.489-1.64c-0.405-0.924-0.958-1.741-1.641-2.425
		c-0.684-0.681-1.5-1.235-2.426-1.641c-1.858-0.815-4.08-0.815-5.94,0c-0.927,0.406-1.742,0.96-2.425,1.641
		c-0.682,0.684-1.233,1.499-1.642,2.425c-0.36,0.825-0.554,1.705-0.596,2.621h-0.018v9.975v2.461h-5.072V24.9
		c0-1.804,0.331-3.494,0.981-5.031c0.651-1.534,1.565-2.888,2.713-4.021c1.148-1.134,2.509-2.041,4.047-2.689
		c1.537-0.653,3.211-0.983,4.982-0.983c1.771,0,3.444,0.337,4.981,1.006c1.537,0.667,2.891,1.582,4.023,2.713
		c1.133,1.133,2.045,2.488,2.714,4.025c0.498,1.143,0.812,2.367,0.938,3.648H32.56z"/>
	<path fill="#FFFFFF" d="M34.039,15.895c-1.133-1.131-2.486-2.046-4.023-2.713c-1.537-0.668-3.211-1.006-4.981-1.006
		c-1.771,0-3.446,0.33-4.982,0.983c-1.538,0.649-2.899,1.555-4.047,2.689c-1.148,1.133-2.062,2.487-2.713,4.021
		c-0.651,1.537-0.981,3.227-0.981,5.031v12.084h5.072v-2.461v-9.975H17.4c0.042-0.916,0.236-1.795,0.596-2.621
		c0.409-0.926,0.96-1.741,1.642-2.425c0.683-0.681,1.498-1.235,2.425-1.641c1.86-0.815,4.082-0.815,5.94,0
		c0.926,0.406,1.742,0.96,2.426,1.641c0.683,0.684,1.235,1.5,1.641,2.425c0.231,0.526,0.389,1.075,0.489,1.64h5.132
		c-0.127-1.282-0.44-2.506-0.938-3.648C36.084,18.383,35.172,17.028,34.039,15.895z"/>
</g>
</svg>
