<?xml version="1.0" encoding="utf-8"?>
<!-- Generator: Adobe Illustrator 15.0.2, SVG Export Plug-In . SVG Version: 6.00 Build 0)  -->
<!DOCTYPE svg PUBLIC "-//W3C//DTD SVG 1.1//EN" "http://www.w3.org/Graphics/SVG/1.1/DTD/svg11.dtd">
<svg version="1.1" id="Calque_1" xmlns="http://www.w3.org/2000/svg" xmlns:xlink="http://www.w3.org/1999/xlink" x="0px" y="0px"
	 width="50px" height="50px" viewBox="0 0 50 50" enable-background="new 0 0 50 50" xml:space="preserve">
<g>
	<circle fill="#EF3637" cx="25" cy="25" r="25"/>
</g>
<g>
	<path fill="#EF3637" d="M25.029,16.997h-0.008c-3.114,0.098-5.322,1.175-6.564,3.202l-0.209,0.341h13.459l-0.202-0.339
		C30.26,18.109,28.081,17.031,25.029,16.997z"/>
	<path fill="#FFFFFF" d="M36.79,20.135c-0.606-1.567-1.464-2.969-2.553-4.166c-1.084-1.193-2.422-2.161-3.973-2.875
		c-1.55-0.711-3.33-1.075-5.286-1.075c-1.77,0-3.445,0.338-4.98,1.006c-1.538,0.669-2.896,1.582-4.033,2.713
		c-1.14,1.135-2.051,2.487-2.713,4.026c-0.661,1.534-0.996,3.209-0.996,4.98c0,1.769,0.334,3.445,0.995,4.982
		c0.663,1.538,1.575,2.892,2.714,4.021c1.137,1.135,2.495,2.046,4.034,2.714c1.535,0.668,3.21,1.006,4.979,1.006
		c1.305,0,2.622-0.181,3.916-0.541c1.287-0.356,2.507-0.93,3.62-1.705c1.116-0.772,2.121-1.795,2.99-3.038
		c0.823-1.176,1.503-2.608,2.025-4.263h-5.594c-0.556,1.335-1.428,2.417-2.593,3.22c-1.207,0.831-2.678,1.254-4.365,1.254
		c-1.009,0-1.982-0.19-2.894-0.564c-0.908-0.374-1.718-0.893-2.401-1.545c-0.683-0.651-1.245-1.428-1.667-2.303
		c-0.424-0.882-0.657-1.842-0.688-2.848l-0.006-0.234h20.42C37.688,23.239,37.368,21.638,36.79,20.135z M18.248,20.541l0.209-0.341
		c1.243-2.027,3.45-3.104,6.564-3.202h0.008c3.052,0.034,5.23,1.112,6.476,3.204l0.202,0.339H18.248z"/>
</g>
</svg>
