<?xml version="1.0" encoding="utf-8"?>
<!-- Generator: Adobe Illustrator 15.0.2, SVG Export Plug-In . SVG Version: 6.00 Build 0)  -->
<!DOCTYPE svg PUBLIC "-//W3C//DTD SVG 1.1//EN" "http://www.w3.org/Graphics/SVG/1.1/DTD/svg11.dtd">
<svg version="1.1" id="Calque_1" xmlns="http://www.w3.org/2000/svg" xmlns:xlink="http://www.w3.org/1999/xlink" x="0px" y="0px"
	 width="50px" height="50px" viewBox="0 0 50 50" enable-background="new 0 0 50 50" xml:space="preserve">
<g>
	<circle fill="#EF3637" cx="25" cy="25" r="25"/>
</g>
<g>
	<path fill="#EF3637" d="M47.496,14.103c-2.147-4.426-5.558-8.125-9.772-10.622v21.333c0,1.801-0.329,3.493-0.981,5.03
		c-0.232,0.549-0.511,1.067-0.81,1.567c-0.535,0.9-1.164,1.728-1.901,2.454c-1.148,1.133-2.511,2.037-4.048,2.69
		c-1.535,0.651-3.214,0.981-4.983,0.981c-1.767,0-3.445-0.339-4.979-1.007c-1.05-0.454-2.007-1.033-2.874-1.711
		c-0.403-0.314-0.792-0.644-1.151-1.003c-0.409-0.409-0.779-0.859-1.131-1.325c-0.619-0.82-1.155-1.717-1.583-2.697
		c-0.663-1.536-1.003-3.212-1.003-4.98c0-1.77,0.34-3.444,1.003-4.981c0.283-0.652,0.621-1.263,0.991-1.846
		c0.501-0.792,1.072-1.525,1.723-2.177c0.868-0.866,1.865-1.602,2.974-2.2c0.341-0.184,0.69-0.357,1.052-0.515
		c0.597-0.259,1.222-0.453,1.858-0.612c1-0.25,2.041-0.393,3.121-0.393c0.679,0,1.367,0.079,2.046,0.233
		c0.477,0.107,0.938,0.247,1.391,0.4c0.202,0.068,0.406,0.132,0.602,0.208c0.13,0.05,0.25,0.11,0.377,0.164
		c0.5,0.212,0.981,0.441,1.426,0.7c0.251,0.148,0.483,0.302,0.703,0.459c0.267,0.189,0.514,0.383,0.73,0.583l0.377,0.349V1.198
		C30.242,0.423,27.67,0,25.001,0C15.106,0,6.553,5.752,2.502,14.094C0.901,17.39,0.001,21.09,0.001,25s0.9,7.61,2.501,10.906
		C6.553,44.248,15.105,50,25,50c9.897,0,18.449-5.753,22.501-14.096c1.6-3.296,2.498-6.995,2.498-10.904
		C49.999,21.091,49.096,17.397,47.496,14.103z"/>
	<path fill="#FFFFFF" d="M30.839,13.797c-0.443-0.259-0.925-0.489-1.424-0.701c-0.127-0.054-0.247-0.113-0.377-0.164
		c-0.195-0.076-0.399-0.141-0.602-0.208c-0.452-0.153-0.914-0.293-1.391-0.4C26.367,12.168,25.679,12.09,25,12.09
		c-1.08,0-2.121,0.142-3.121,0.393c-0.637,0.159-1.261,0.353-1.857,0.612c-0.362,0.158-0.712,0.331-1.053,0.515
		c-1.108,0.599-2.105,1.334-2.974,2.2c-0.65,0.652-1.222,1.386-1.723,2.177c-0.37,0.583-0.706,1.194-0.989,1.846
		c-0.666,1.537-1.003,3.211-1.003,4.981c0,1.768,0.337,3.444,1.003,4.98c0.427,0.98,0.963,1.877,1.581,2.697
		c0.352,0.466,0.722,0.916,1.131,1.325c0.359,0.359,0.748,0.688,1.151,1.003c0.867,0.677,1.824,1.257,2.875,1.711
		c1.534,0.666,3.211,1.007,4.979,1.007c1.77,0,3.447-0.33,4.983-0.981c1.539-0.654,2.899-1.561,4.048-2.69
		c0.737-0.728,1.365-1.555,1.901-2.454c0.299-0.5,0.577-1.019,0.81-1.567c0.652-1.537,0.981-3.229,0.981-5.03V3.481
		c-1.584-0.94-3.284-1.71-5.071-2.283v13.991l-0.378-0.35c-0.217-0.201-0.464-0.395-0.73-0.583
		C31.324,14.098,31.092,13.944,30.839,13.797z M32.652,24.814c0,1.043-0.208,2.043-0.614,2.97c-0.405,0.925-0.96,1.741-1.642,2.425
		c-0.683,0.682-1.499,1.235-2.423,1.642c-0.929,0.406-1.927,0.614-2.973,0.614c-1.043,0-2.042-0.208-2.97-0.614
		c-0.925-0.406-1.742-0.96-2.423-1.642c-0.685-0.684-1.236-1.499-1.642-2.425c-0.408-0.932-0.614-1.93-0.614-2.97
		c0-0.261,0.013-0.519,0.038-0.773c0.077-0.764,0.271-1.5,0.576-2.196c0.405-0.928,0.957-1.744,1.642-2.425
		c0.681-0.683,1.497-1.234,2.423-1.641c1.858-0.815,4.08-0.815,5.942,0c0.926,0.407,1.743,0.958,2.423,1.641
		c0.682,0.683,1.237,1.499,1.642,2.425C32.445,22.77,32.652,23.771,32.652,24.814z"/>
</g>
</svg>
